<?xml version="1.0" encoding="utf-8"?>
<!-- Generator: Adobe Illustrator 15.1.0, SVG Export Plug-In . SVG Version: 6.00 Build 0)  -->
<!DOCTYPE svg PUBLIC "-//W3C//DTD SVG 1.1//EN" "http://www.w3.org/Graphics/SVG/1.1/DTD/svg11.dtd">
<svg version="1.1" id="Layer_1" xmlns="http://www.w3.org/2000/svg" xmlns:xlink="http://www.w3.org/1999/xlink" x="0px" y="0px"
	 width="361.9px" height="62px" viewBox="0 0 361.9 62" enable-background="new 0 0 361.9 62" xml:space="preserve">
<g>
	<g>
		<path fill="#FFFFFF" d="M17.4,49.4c-7.4,0-13.1-8.1-13.1-17.6h26.2C30.5,41.3,24.8,49.4,17.4,49.4"/>
		<path fill="#231F20" d="M20.3,9.8l0.2,0c0,0-0.1-1-1.9-0.9h-0.4c0,0-0.2,0.5-0.2,0.5l1.2-0.1C19.2,9.4,20,9.3,20.3,9.8"/>
		<path fill="#231F20" d="M18.4,10.4c0,0,0.3-0.3,0.3-0.3s0,0,0.1,0c0,0,0,0.1,0,0.1c0,0.2,0.1,0.3,0.3,0.4c0,0,0.3,0,0.3,0
			c0.2-0.1,0.3-0.2,0.3-0.4c0,0,0-0.1,0-0.1c0.2,0,0.3,0.1,0.4,0.3l0.4,0c0,0-0.2-0.9-1.8-0.7c0,0-0.4,0.6-0.4,0.6
			C18,10.4,18.4,10.4,18.4,10.4"/>
		<path fill="#231F20" d="M14.7,10.4l0.4,0c0.1-0.2,0.3-0.2,0.4-0.3c0,0,0,0.1,0,0.1c0,0.2,0.1,0.3,0.3,0.4c0,0,0.3,0,0.3,0
			c0.2-0.1,0.3-0.2,0.3-0.4c0,0,0,0,0-0.1c0,0,0.1,0,0.1,0s0.2,0.2,0.2,0.2c0,0,0.4,0,0.4,0c0,0-0.4-0.6-0.4-0.6
			C14.9,9.5,14.7,10.4,14.7,10.4"/>
		<path fill="#231F20" d="M15.7,9.4l1.2,0.1c0,0-0.1-0.5-0.1-0.5h-0.3c-1.8-0.1-2,0.8-2,0.8l0.2,0C14.9,9.3,15.7,9.4,15.7,9.4"/>
		<path fill="#231F20" d="M19.2,22C19.1,22,19.1,22,19.2,22C19.1,22,19.1,22.1,19.2,22"/>
		<path fill="#231F20" d="M18.9,51.7c1.3-0.1,5-1.8,6.3-2.8c1.4,0.1,2-1,3-1.5c-0.1-0.1-0.2-0.1-0.3-0.2c0.6-0.4,0.9-0.9,1.6-1.4
			c-0.1-0.1-0.3-0.2-0.5-0.2c1-0.3,0.3-0.7,1.2-1.4c0-0.1-0.1-0.1-0.2-0.1c0.6-0.4,0.6-1,1.1-1.6c-0.1-0.1-0.3-0.1-0.6-0.1
			c1.1-0.3,1-1.1,1.6-1.8c-0.1,0-0.2,0-0.4,0c0.6-0.5,0.4-1.1,0.9-1.8c-0.2-0.1-0.4-0.1-0.6-0.1c0.9-0.4,0.8-1.3,1.3-2.1
			c-0.1-0.1-0.2-0.1-0.4-0.1c0.8-0.7-0.2-0.5,0.4-2c-0.2-0.1-0.4-0.1-0.6,0c0.8-0.6,0.6-1.4,1.1-2.4c-0.5-0.1-1.7,0.7-2,1.4v-0.1
			c0.1-0.2,0.3-0.5,0.7-0.7c1.2-0.8,0.7-1.6,1-2.7c-0.6,0-1.6,0.9-1.8,1.5c0-0.1,0-0.1,0-0.2c0.2-0.3,0.2-0.7,0.8-1
			c1-0.5,0.7-1.5,1-2.6c-0.1,0-0.4,0-0.6,0.1c0.2-0.7-0.2-1.2-0.1-2.1c-0.6,0-1.2,1-1.3,1.7c0-0.1-0.1-0.2-0.2-0.3
			c0.1-0.3,0.1-0.6,0.6-0.9c1-1.1,0.2-1.8,0.3-2.9c-0.1,0-0.2,0-0.3,0.1c0-0.6-0.5-0.9-0.5-1.6c-0.6,0.1-1.1,1.1-1,1.8
			c-0.1-0.1-0.2-0.2-0.3-0.3c0.1-0.3,0.1-0.6,0.5-1c0.5-1.1,0-1.6-0.1-2.7c-0.2,0-0.3,0.1-0.5,0.3c0-0.7-0.4-1-0.6-1.8
			c-0.4,0.1-0.7,0.6-0.8,1.1c0-0.2,0-0.5,0.1-0.8c0-1.4-0.6-1.6-1-2.7c-0.2,0.1-0.3,0.5-0.4,0.8c-0.2-1-0.6-1.2-1.1-2.1
			c-0.3,0.3-0.5,1.2-0.4,1.9c-0.1-0.2-0.1-0.5,0-0.9c-0.1-1.1-0.7-1.5-1.2-2.2c0.3,0,0.5-0.1,0.9-0.3c0,0-0.5,0-0.8-0.1
			c-0.3-0.1-0.5-0.4-0.8-0.6c-0.3-0.2-0.6,0-1.1-0.3l2.8-0.6c0,0-2.8-0.5-2.8-0.5s0.2-0.2,0.5-0.2c0.3,0,0.6,0,0.9-0.3
			c0.1-0.1,0.5-0.6,1.3-0.5c-0.6-0.4-1-0.2-1.5,0c-0.4,0.2-0.6,0-1.2,0.1c0,0,2.3-1.5,2.3-1.5l-2.8,0.6c0.4-0.7,0.9-0.4,1.1-1.2
			c0.1-0.2,0.4-0.5,0.9-0.8c-0.5-0.2-1.1,0.2-1.6,0.8c-0.2,0.1-0.7,0.3-1,0.3c0,0,1.6-2.3,1.6-2.3s-1.6,1.1-2.4,1.6v0
			c0.1-0.6,0.5-0.5,0.6-1.2c0-0.2,0-0.8,0.5-1.3c-0.6,0.1-0.9,0.6-1.2,1.3c-0.1,0.3-0.5,0.4-0.8,0.7c0,0,0.6-2.8,0.6-2.8L19,6.2
			c0,0-0.1-0.1-0.1-0.4c0.2-0.5,0.2-0.7,0.2-0.9c-0.2-0.4-0.3-0.9,0-1.5c-0.9,0.5-0.5,1.3-0.7,1.9C18.3,5.5,18.1,5.8,18,6l-0.4-2.8
			L17,6c-0.3-0.4-0.1-0.6-0.3-1.1C16.4,4.4,16,4.5,16,3.4c-0.2,0.4-0.4,0.7,0.1,1.8c0.1,0.1-0.1,0.6,0,1l-1.5-2.3L15,6.6
			c-0.4,0-0.4-0.6-0.7-0.9c-0.4-0.3-1-0.2-1.3-1.1c-0.1,0.6,0.1,1,0.7,1.5c0.2,0.3,0.3,0.8,0.4,1l-2.4-1.6l1.6,2.3
			c-0.5,0.1-0.6-0.6-1.6-0.6c-0.7,0-1-0.6-1-0.5c0.3,1.2,1.2,0.8,1.5,1.3c0.1,0.1,0.4,0.5,0.5,0.6l-2.7-0.6l2.4,1.5
			c-0.4,0.2-0.9-0.3-1.4,0c-0.9,0.5-1.3,0-1.4,0c0.5,0.7,0.9,0.5,1.5,0.6c0.4,0,0.7,0.2,1.2,0.4l-2.8,0.6l2.8,0.5
			c-0.3,0.3-0.9,0.1-1.2,0.4c-0.8,0.9-1.7,0.4-1.4,0.6c0.7,0.5,1.1,0.4,1.5,0.2c-0.3,0.2-0.5,0.4-0.7,0.7c0-0.2-0.1-0.4-0.2-0.5
			C9.7,13.9,9,14,8.8,15c0-0.3-0.1-0.5-0.3-0.6c-0.5,0.9-1,1-1.2,1.9C7.3,16,7.2,15.8,7,15.8c-0.5,1.1-1.2,1.3-1,2.7
			c0.1,0.4,0.1,0.6,0.1,0.8c-0.1-0.6-0.3-1.1-0.7-1.2c-0.3,0.6-0.7,1.1-0.8,1.7c-0.1-0.1-0.3-0.2-0.4-0.2c-0.1,1.1-0.9,1.4-0.1,2.7
			c0.4,0.4,0.4,0.7,0.4,1c-0.1,0-0.1,0.1-0.1,0.2c0.1-0.7-0.5-1.7-1.1-1.7c-0.1,0.8-0.5,1.2-0.4,1.8c-0.1-0.1-0.3-0.1-0.4-0.1
			c0.1,1.1-0.7,1.5,0.3,2.6c0.5,0.3,0.5,0.7,0.6,0.9c-0.1,0.1-0.1,0.2-0.2,0.3c-0.1-0.7-0.8-1.6-1.3-1.6c0.1,1.2-0.5,1.2-0.1,2
			c-0.2-0.1-0.4-0.2-0.6-0.2c0.3,1.1,0,2,1,2.6c0.6,0.3,0.6,0.7,0.8,1c0,0.1-0.1,0.1-0.1,0.2c-0.2-0.7-1.2-1.5-1.8-1.5
			c0.3,0.9,0.1,1.8,0.7,2.4C1.6,32,1.3,31.9,1,31.9c0.5,1.1,0.2,1.7,1.2,2.6c-0.3-0.2-0.6-0.2-0.8-0.1c0.3,0.7,0.2,1.3,0.5,1.8
			c-0.2,0-0.3,0-0.4,0.1c0.5,0.9,0.4,1.6,1.2,2.1c-0.2,0-0.4,0-0.5,0.1c0.4,0.6,0.4,1.2,0.7,1.7c-0.1,0-0.2,0-0.3,0.1
			C3.2,41,3.2,41.7,4,42.1c-0.2,0-0.4,0-0.5,0.1c0.5,0.5,0.7,1.1,1.2,1.5c-0.2,0-0.4,0.1-0.5,0.2C4.9,44.4,5,45,5.8,45.3
			c-0.2,0-0.4,0.1-0.5,0.1c1,0.8,0.3,1.1,1.3,1.4c-0.1,0-0.1,0.1-0.2,0.1c1,0.6,1.1,1.8,3.4,1.8c1.1,1.2,4,2.6,6.2,2.8L18.9,51.7z
			 M32.8,35c-0.3,0.7,0,1.1-0.6,1.7c-0.4,0.1-0.4,0.2-0.5,0.4c0.1-0.3,0.2-0.5,0.3-0.7c-0.2,0.1-0.3,0.2-0.4,0.4
			c-0.1-0.1-0.3-0.1-0.5-0.5c-0.3-0.6-0.1-0.8-0.2-1.4c0.3,0.5,0.8,1,0.9,1.4C31.8,35.6,32.5,34.9,32.8,35 M31.6,35.3
			c0.1-0.2,0.3-0.4,0.6-0.6c-0.3,0.2-0.5,0.5-0.6,0.8C31.6,35.5,31.6,35.4,31.6,35.3 M33.1,32.6c-0.3,0.8-0.1,1.1-0.8,1.8
			c-0.5,0.2-0.4,0.3-0.6,0.5c0.1-0.3,0.2-0.5,0.4-0.7c-0.2,0.2-0.4,0.3-0.5,0.5c-0.1-0.1-0.3,0-0.5-0.4c-0.3-0.5,0-0.8-0.1-1.3
			c0.3,0.4,0.7,0.8,0.8,1.1C32,33.4,32.8,32.6,33.1,32.6 M31.8,31.9c0.1-0.6,0.8-1.5,1-1.5c-0.2,0.8,0.1,1.1-0.5,1.8
			c-0.4,0.2-0.4,0.4-0.5,0.5c0-0.3,0.1-0.5,0.3-0.8c-0.2,0.2-0.3,0.4-0.4,0.6c-0.1,0-0.3,0-0.6-0.3c-0.4-0.4-0.2-0.8-0.3-1.3
			C31.2,31.3,31.7,31.6,31.8,31.9 M31,30.3c0.3,0.3,0.5,0.4,0.6,0.7c-0.2-0.2-0.3-0.3-0.5-0.5C31,30.5,31,30.4,31,30.3 M32.9,28.1
			c-0.2,0.8,0.1,1.1-0.5,1.7c-0.4,0.2-0.4,0.3-0.5,0.5c0-0.3,0.1-0.5,0.3-0.7c-0.2,0.1-0.3,0.3-0.4,0.5c-0.1-0.1-0.3,0-0.6-0.3
			c-0.4-0.5-0.2-0.7-0.3-1.3c0.4,0.4,0.9,0.7,1,1C31.9,29,32.6,28.1,32.9,28.1 M31.7,27.9c0-0.5,0.5-1.5,0.8-1.6
			c-0.1,0.8,0.3,1-0.2,1.8c-0.4,0.3-0.3,0.4-0.4,0.5c0-0.3,0-0.5,0.1-0.8c-0.2,0.2-0.3,0.4-0.3,0.6c-0.1-0.1-0.3,0.1-0.6-0.3
			c-0.5-0.4-0.3-0.7-0.6-1.2C31,27.4,31.6,27.6,31.7,27.9 M30.1,38.1c0-0.1,0.1-0.3,0.1-0.4c0,0,0,0.1,0,0.1c0.3,0.9,0.5,1,0.4,1.6
			c0,0,0,0,0,0.1C30.7,39,30.4,38.5,30.1,38.1 M29,42.7c0-0.3-0.2-0.6-0.3-0.9c0-0.1,0.1-0.2,0.2-0.3C28.9,42.1,29.1,42.3,29,42.7
			 M29.9,42.5c-0.4,0.1-0.7,0.3-1,0.5c0,0,0-0.1,0-0.1C29.2,42.8,29.4,42.5,29.9,42.5 M28.1,41.2c0,0-2.3,0.4-5.2-1.5
			c0.2-0.3,0.3-1.1,0.2-1.5c-0.1-0.4-0.1-0.1-0.2,0.2c-0.3,0.7-0.5,0.7-0.8,1c-0.9-0.9-1-0.9-2.1-1.5c-0.8-0.4-0.8-0.7-1.3-1
			c-0.8,0.4-1.9,1-2.5,0.6c-0.5-0.2,0.6-0.5,1-1.2c0.4-0.5,0.8-0.7,1.4-0.5c1.2,0.3,1.8,0.7,3.5,1.4c2.1,0.2,3.7,0.8,5.9,1.3
			c0.4,0.1,0.9,0.1,1.1,0.2C29,39.5,28.7,40.1,28.1,41.2 M18.8,38.9c0.6,0.7,1.2,0.9,1.6,1.7c-0.1,0.3-0.4,0.3-0.6,0.2
			c-1-1.1-1.8-1.2-1.5-1.7c-0.2,0-0.4,0.2-0.3,0.4c0.2,0.8,1,1.1,1.3,1.7c-0.1,0.5-1.1,0.1-1.6-1.3l0-0.1c-0.2,0.4-0.4,0.5,0.3,1.3
			c0.2,0.3,0.3,0.6-0.3,0.6c0.1,0.1-0.2,0-0.1,0h0.1c0,0,0,0-0.1-0.1c0.2-1.3-1-1.1-0.9-1.1c0.2-0.5-0.5-1-1.2-0.6
			c0.1-0.4-0.6-0.9-1.6-0.5c-0.1-0.3-1-0.7-1.9,0.4c-1.5,0.1-4,1.5-5.6,0.8c-0.1,0.1-1-2.5-1-2.5c1.8-0.2,5.8-0.4,7.2-1
			c1.1-0.7,3.2-1.1,3.7-0.8c0,0.4-0.9,1.1-0.5,1.5c0.8,0.7,2,0.4,2.9-0.1c0.9,0.9,2.3,1,2.9,2.2l-0.2,0.4c-0.3,0.2-0.3,0.2-0.7-0.3
			c-0.9-1.1-1.7-0.9-1.8-1.6C18.6,38.4,18.8,38.7,18.8,38.9 M14.7,41.2c-0.3,0.1,0.1-0.2,0.2-0.3l0.1-0.2c0.3-0.3,0.6-0.6,0.9-0.1
			c0.1,0.3-0.9,0.9-1.1,1c-0.2,0.1-0.2,0.1-0.3-0.1C14.4,41.4,14.5,41.2,14.7,41.2 M13.8,41.1c-0.2,0-0.3,0.1-0.4-0.1
			c-0.1-0.2,0.2-0.5,0.4-0.7c0.1-0.1,0.2-0.1,0.2-0.2l0.2-0.2c0.4-0.1,0.4,0,0.4,0.2C14.7,40.3,14,41.1,13.8,41.1 M16.3,41.3
			c0,0,0.4-0.5,0.6,0.2c0.1,0.3-0.4,0.5-0.8,0.7C15.9,42,15.4,42,16.3,41.3 M12.7,40.4c-0.2,0.1-0.4-0.2-0.3-0.3l0.2-0.3
			c0.3-0.1,0.5-0.2,0.6-0.1C13.3,39.8,12.9,40.3,12.7,40.4 M6,41.5c-0.1,0.1-0.1,0.2-0.1,0.3c0-0.1,0.1-0.2,0.1-0.4
			C5.9,41.4,6,41.4,6,41.5 M5.7,42.7c-0.1-0.1-0.3-0.3-0.6-0.4c0.2,0.1,0.4,0.2,0.6,0.2C5.6,42.6,5.6,42.6,5.7,42.7 M4.1,39.2
			C4.1,39.2,4.1,39.2,4.1,39.2c-0.1-0.7,0.1-0.7,0.4-1.6c0,0.1,0.1,0.2,0.1,0.3C4.4,38.3,4.1,38.8,4.1,39.2 M4.3,26.6
			c-0.1,0.1-0.3,0.1-0.4,0.2c0.1-0.1,0.3-0.2,0.5-0.4C4.3,26.5,4.3,26.5,4.3,26.6 M4.4,31.9h12.3v3.6c-0.5-0.1-1.5-0.1-2.3,0
			c-2.3,0.4-1.5,1.5-9.3,1.6C4.3,34.8,4.4,31.9,4.4,31.9 M12,14c0.1-0.1,0.2-0.1,0.3-0.6c0.3-1,0.8-0.9,1.5-1.3
			c0.2,0.3-0.6,1.4-1.1,1.7c0.3,0,0.8,0.4,1.2,0.5c-0.5,0.1-0.8,0.4-1.3,0.2c-0.4-0.1-0.4-0.3-0.5-0.4c0.2-0.1,0.3-0.4,0.4-0.6
			C12.5,13.7,12.3,13.9,12,14 M21.4,13.7c-0.2,0-0.4-0.1-0.6-0.2c0.3-0.1,0.6-0.2,0.8-0.4c0.5,0.1,1,0.4,1,0.8
			c-0.4-0.1-0.5,0.2-1.2,0.3c-0.6,0.1-0.9-0.2-1.5-0.3c-0.2-0.1-0.2-0.2-0.2-0.3c0.3,0.1,0.5,0.1,0.8,0l0,0.1
			C20.9,13.8,21.2,13.8,21.4,13.7 M19.5,12.9c0.3,0,0.6-0.1,0.8-0.2c-0.2,0-0.4,0-0.6,0c0.4-0.2,0.6-0.5,1.1-0.5
			c0.7,0,0.7,0.4,1.1,0.2C22,12.8,20,13.7,19.5,12.9 M18.5,12.8c0.3,0.1,0.6,0.7,1,1c-0.5-0.2-0.8,0-1.3-0.4
			c-0.3-0.3-0.3-0.5-0.3-0.6c0.2-0.1,0.4-0.2,0.5-0.4c-0.2,0.1-0.5,0.2-0.7,0.2c0.1-0.1,0.2,0,0.5-0.5c0.6-0.6,1-0.3,1.7-0.4
			C19.9,12.1,19,12.7,18.5,12.8 M16.9,12.9c0.3,0,0.7,0.5,1.1,0.8c-0.5,0-0.8,0.2-1.3-0.1c-0.4-0.2-0.3-0.4-0.4-0.5
			c0.2-0.1,0.3-0.3,0.5-0.5c-0.2,0.2-0.4,0.3-0.7,0.4c0.1-0.1,0.3-0.1,0.4-0.6c0.5-0.7,0.8-0.4,1.5-0.8C18.1,12,17.4,12.8,16.9,12.9
			 M15.8,13.9c-0.5,0-0.8,0.3-1.3,0c-0.4-0.2-0.4-0.4-0.4-0.4c0.2-0.1,0.3-0.3,0.4-0.5c-0.2,0.2-0.4,0.3-0.7,0.4
			c0.1-0.1,0.3-0.1,0.4-0.6c0.5-0.8,0.9-0.5,1.6-0.9c0,0.3-0.7,1.1-1.2,1.3C14.9,13.2,15.3,13.7,15.8,13.9 M24.7,16.5
			c0.1,0,0.1,0,0.2,0C24.8,16.5,24.8,16.5,24.7,16.5C24.7,16.5,24.7,16.5,24.7,16.5 M29.2,22.8c0.1,0.1,0.2,0.1,0.3,0.2
			c-0.1,0-0.2-0.1-0.3-0.1C29.2,22.8,29.2,22.8,29.2,22.8 M22.7,36.5c-1.2-0.2-2.8-1.6-4.6-1.5v-3.1h12.3c0,0.4-0.2,3.7-0.9,5.9
			C27,37.8,24.7,36.4,22.7,36.5 M30.4,26.4c0.2,0.2,0.4,0.3,0.5,0.4c-0.1-0.1-0.3-0.2-0.5-0.2C30.4,26.5,30.4,26.5,30.4,26.4
			 M31.9,24.1c0,0.8,0.3,1-0.2,1.8c-0.4,0.2-0.3,0.4-0.4,0.5c0-0.3,0-0.5,0.1-0.7c-0.1,0.2-0.3,0.4-0.3,0.6c-0.1,0-0.3,0.1-0.6-0.3
			c-0.5-0.4-0.3-0.7-0.6-1.2c0.4,0.3,1,0.6,1.2,0.9C31.1,25.1,31.6,24.1,31.9,24.1 M30.7,24c-0.1-0.5,0.2-1.5,0.5-1.6
			c0.1,0.8,0.5,1,0.2,1.7c-0.3,0.3-0.3,0.4-0.3,0.6c-0.1-0.3-0.1-0.5,0-0.8c-0.1,0.2-0.2,0.4-0.2,0.6c-0.2,0-0.3,0.1-0.7-0.2
			c-0.6-0.3-0.5-0.7-0.8-1.1C29.8,23.6,30.4,23.7,30.7,24 M30.1,20.2c0.1,0.8,0.5,1,0.2,1.8c-0.4,0.3-0.3,0.4-0.3,0.5
			c-0.1-0.3-0.1-0.5,0-0.8c-0.1,0.2-0.2,0.4-0.2,0.6c-0.1,0-0.3,0.1-0.7-0.2c-0.5-0.3-0.5-0.7-0.8-1.1c0.5,0.3,1.2,0.5,1.4,0.8
			C29.5,21.3,29.8,20.3,30.1,20.2 M29.1,18.6c0.2,0.7,0.7,0.9,0.5,1.7c-0.3,0.3-0.2,0.4-0.2,0.6c-0.1-0.3-0.2-0.5-0.2-0.7
			c-0.1,0.2-0.1,0.4-0.1,0.6c-0.1,0-0.3,0.1-0.7-0.1c-0.6-0.3-0.6-0.6-1-1.1c0.6,0.2,1.2,0.3,1.5,0.6C28.7,19.8,28.8,18.8,29.1,18.6
			 M28.5,19.8c-0.1-0.1-0.2-0.2-0.4-0.3C28.2,19.6,28.3,19.6,28.5,19.8C28.5,19.8,28.5,19.8,28.5,19.8 M27.6,16.5
			c0.3,0.7,0.6,0.7,0.6,1.6c-0.2,0.5-0.1,0.5,0,0.7c-0.1-0.2-0.2-0.5-0.3-0.8c0,0.2,0,0.5,0,0.7c-0.1,0-0.2,0.2-0.6,0.1
			c-0.6-0.1-0.6-0.5-1-0.8c0.5,0.1,1.1,0,1.4,0.2C27.4,17.8,27.4,16.7,27.6,16.5 M26.4,16.9c-0.3-0.4-0.3-1.5-0.2-1.7
			c0.4,0.7,0.7,0.5,0.7,1.5c-0.1,0.5,0,0.6,0,0.7c-0.2-0.2-0.3-0.5-0.4-0.7c0,0.3,0,0.5,0.1,0.7c-0.1,0-0.2,0.2-0.6,0.2
			c-0.6,0-0.7-0.4-1.1-0.7C25.5,16.9,26.1,16.7,26.4,16.9 M24.4,13.6c0.4,0.7,0.9,0.6,1,1.5c-0.1,0.5,0,0.5,0,0.7
			c-0.2-0.2-0.3-0.4-0.4-0.7c0,0.2,0,0.5,0.1,0.7c-0.1,0-0.2,0.2-0.6,0.2c-0.6,0-0.7-0.3-1.2-0.6c0.6,0,1.2-0.2,1.5-0.1
			C24.5,15,24.2,13.9,24.4,13.6 M24.1,13.1c0,0.1,0,0.2-0.1,0.3c-0.1-0.1-0.2-0.2-0.3-0.3C23.9,13.1,24,13.1,24.1,13.1 M23.9,13.8
			c-0.1,0.5,0.1,0.5,0.2,0.7c-0.1,0-0.1,0-0.1,0c-0.2-0.2-0.4-0.4-0.4-0.6c0.1,0.4,0.1,0.5,0.2,0.7c-0.1,0.1-0.2,0.2-0.4,0.2
			c-0.7,0.1-0.9-0.1-1.1-0.3c0.5-0.2,0.7-0.5,1.2-0.3c0,0,0-0.1,0-0.1c0,0,0,0,0,0l0,0c-0.1-0.2-0.2-0.3-0.4-0.5
			c-0.2-0.4-0.4-0.8-0.3-0.9C23.1,13.1,23.7,12.9,23.9,13.8 M23.4,12.5h-0.6c-0.1-0.1-0.1-0.1-0.2-0.2
			C22.9,12.4,23.3,12.4,23.4,12.5 M12.9,12c0.5-0.2,0.7-0.4,0.7-0.4l-1.7-0.4l1.8-0.4c0,0,0-0.1-1.1-0.4c-0.2-0.1,0-0.3-0.9-0.4
			c0.3-0.1,0.2,0.1,0.8,0.2c0.4,0,0.7,0.1,1.3,0c0,0-1-0.8-1.7-1.2c0,0,1.1,0.3,2,0.5c0-0.1-0.7-0.6-1.2-1.2
			c-0.1-0.1-0.1-0.2-0.3-0.3C13,8.1,13,8.2,13.3,8.4c0.3,0.1,0.9,0.4,1.1,0.4C13.9,8.1,13.2,7,13.2,7L15,8.2c-0.1-0.5-0.4-0.8-0.4-1
			c-0.2-0.8-0.2-0.7-0.3-1c0.5,0.7,0.7,1.1,1.4,1.6l-0.3-2.2l1.1,2c0.1-0.3,0-0.8,0-1c0.1-1,0.1-0.4,0-1.2c0.1,0.4,0.1,0.3,0.2,0.9
			c0.2,0.4,0.3,0.8,0.6,1.1l0.4-2.1c0,0,0.3,2.1,0.3,2.1C18,7,18,6.7,18.2,6.4c0.3-0.6,0.4-1,0.4-1c-0.2,0.9-0.1,0.6-0.2,1
			c0,0.4,0,1.1,0.1,1.1l1.3-1.8l-0.5,2.2c0.1-0.1,0.7-0.7,1.1-1.1c0.1-0.1,0.4-0.5,0.4-0.5c-0.3,0.4-0.4,0.6-0.5,0.9
			c-0.2,0.5-0.2,0.3-0.4,1.1L21.7,7l-1.2,1.8c0,0,0.1,0,0.9-0.4c0.5-0.1,0.9-0.3,1.1-0.5c-0.6,0.5-0.9,0.5-1.7,1.5L23,9
			c0,0-1.7,1-1.8,1.1c0.1,0.1,0.8-0.1,1.3,0c0.5,0,0.5,0,0.9,0c-0.5,0.2-0.7,0.1-1.3,0.3c-0.2,0.1-0.8,0.3-0.8,0.5l2.1,0.4
			c0,0-2,0.5-2.4,0.6c-0.1,0-0.2,0-0.4,0c-0.1,0-0.2,0-0.3,0c0.1-0.1,0.1-0.3,0.1-0.4c-0.7,0.2-1.3,0-1.9,0.1c0.1-0.2,0.1-0.3,0-0.4
			c-0.9,0.4-1.6,0.2-2.3,0.8c0-0.2,0-0.4-0.1-0.6c-0.7,0.4-1.4,0.1-1.9,0.6c0-0.2,0-0.3,0-0.4c-0.8,0.3-1.4,0.4-2,1
			c-0.1,0-0.3,0-0.5-0.1c0,0,0-0.1-0.1-0.1c0,0-0.1,0-0.1,0.1c-0.1,0-0.2,0-0.4,0C12.1,12.2,12.5,12.2,12.9,12 M10.4,14.4
			c0.2-0.8,0.7-0.7,1.2-1.2c0.1,0.2-0.3,1.2-0.7,1.6c0.3-0.1,0.9,0.2,1.4,0.3c-0.5,0.1-0.6,0.4-1.3,0.4c-0.4,0-0.5-0.2-0.6-0.3
			c0.1-0.2,0.2-0.4,0.2-0.6c-0.1,0.2-0.3,0.4-0.5,0.6C10.3,14.9,10.5,14.9,10.4,14.4 M11.5,14.6C11.5,14.6,11.5,14.6,11.5,14.6
			C11.5,14.6,11.5,14.6,11.5,14.6L11.5,14.6z M9.1,15.5c0.1-0.9,0.5-0.8,1-1.5c0.2,0.2-0.1,1.3-0.4,1.7c0.3-0.2,0.9,0,1.4,0.1
			c-0.5,0.2-0.6,0.6-1.1,0.6c-0.4,0-0.5-0.2-0.6-0.2c0.1-0.2,0.1-0.4,0.1-0.7c-0.1,0.3-0.2,0.5-0.4,0.7C9.1,16,9.2,16,9.1,15.5
			 M8.8,16.3c0,0.1-0.1,0.2-0.1,0.3c0,0,0,0,0,0C8.7,16.5,8.7,16.4,8.8,16.3 M7.6,16.7c0.1-0.9,0.3-0.8,0.7-1.5
			c0.2,0.2,0.1,1.3-0.2,1.7c0.3-0.2,0.8,0,1.4,0c-0.5,0.3-0.5,0.6-1.1,0.7c-0.4,0-0.5-0.1-0.6-0.2C7.9,17.2,8,17,8,16.7
			c-0.1,0.3-0.2,0.5-0.3,0.7C7.7,17.3,7.8,17.2,7.6,16.7 M7,16.7c0.2,0.2,0.2,1.3-0.1,1.8c0.3-0.2,0.8-0.1,1.4-0.2
			c-0.4,0.3-0.5,0.7-1,0.8C6.9,19.2,6.8,19,6.7,19c0.1-0.2,0.1-0.5,0.1-0.7c0,0.2-0.1,0.5-0.3,0.8c0-0.2,0.1-0.2,0-0.7
			C6.4,17.4,6.7,17.4,7,16.7 M6.1,19.9c0.1-0.1,0.2-0.1,0.3-0.2C6.2,19.8,6.2,19.8,6.1,19.9C6.1,19.9,6.1,19.9,6.1,19.9 M5.5,18.8
			c0.2,0.1,0.4,1.1,0.2,1.6C6,20.1,6.6,20,7.2,19.8c-0.4,0.4-0.4,0.7-1,1c-0.5,0.2-0.6,0.1-0.7,0.1c0-0.2,0-0.4-0.1-0.6
			c0,0.2-0.1,0.5-0.2,0.7c0-0.2,0.1-0.2-0.2-0.6C4.8,19.7,5.3,19.5,5.5,18.8 M4.4,22.1c-0.4-0.7,0.1-1,0.2-1.7
			c0.2,0.1,0.6,1,0.5,1.5c0.2-0.3,0.9-0.5,1.3-0.8c-0.3,0.5-0.2,0.8-0.8,1.2c-0.4,0.3-0.5,0.2-0.7,0.2c0-0.2-0.1-0.4-0.2-0.6
			c0.1,0.2,0,0.5,0,0.7C4.6,22.4,4.7,22.4,4.4,22.1 M5.5,22.8c0,0.1,0,0.1-0.1,0.2C5.2,23,5,23.1,4.8,23.2C5,23,5.2,23,5.5,22.8
			 M3.6,22.5c0.3,0.1,0.6,1,0.5,1.6c0.2-0.3,0.8-0.5,1.3-0.7c-0.3,0.5-0.2,0.8-0.8,1.1c-0.4,0.3-0.5,0.1-0.7,0.2
			c0-0.2-0.1-0.4-0.2-0.6c0.1,0.2,0,0.5,0,0.7c0-0.2,0-0.3-0.3-0.6C3.1,23.4,3.5,23.2,3.6,22.5 M3.1,25.8c-0.5-0.7-0.1-1-0.2-1.7
			c0.3,0,0.7,1,0.8,1.5c0.1-0.3,0.7-0.6,1.2-0.9c-0.2,0.5-0.1,0.8-0.6,1.2c-0.3,0.3-0.5,0.2-0.6,0.3c0-0.2-0.2-0.4-0.3-0.6
			c0.1,0.2,0.1,0.5,0.1,0.7C3.4,26.2,3.5,26.1,3.1,25.8 M2.3,26.3c0.3,0.1,0.8,1,0.8,1.5c0.2-0.3,0.7-0.5,1.2-0.8
			c-0.2,0.5-0.1,0.8-0.5,1.2c-0.3,0.3-0.5,0.2-0.6,0.2c0-0.2-0.2-0.4-0.3-0.6c0.1,0.2,0.1,0.5,0.1,0.7c-0.1-0.2,0-0.3-0.4-0.5
			C2,27.3,2.4,27.1,2.3,26.3 M3.1,30c-0.1-0.2-0.2-0.4-0.4-0.6c0.1,0.2,0.2,0.5,0.3,0.7c-0.1-0.1-0.1-0.2-0.5-0.5
			c-0.6-0.7-0.4-0.8-0.6-1.6c0.3,0,1,0.8,1.1,1.3c0.1-0.3,0.6-0.6,1-1C3.8,29,4,29.2,3.7,29.7C3.4,30.1,3.2,30,3.1,30 M3.8,30.2v0.3
			c-0.2,0.1-0.4,0.3-0.6,0.5C3.3,30.6,3.5,30.5,3.8,30.2 M1.9,30.4c0.3,0,1,0.9,1.1,1.4c0.1-0.3,0.6-0.6,1-1
			c-0.1,0.5,0.1,0.8-0.3,1.3c-0.3,0.3-0.4,0.2-0.6,0.3C3,32.2,2.8,32,2.7,31.8c0.1,0.2,0.2,0.5,0.3,0.7c-0.1-0.2-0.1-0.3-0.5-0.5
			C1.8,31.4,2.1,31.2,1.9,30.4 M3,33.2L3,33.2c-0.1-0.2-0.4-0.5-0.7-0.7C2.7,32.7,2.9,32.9,3,33.2 M1.8,32.6c0.3,0,1,0.7,1.2,1.2
			c0-0.3,0.5-0.7,0.8-1.1c0,0.6,0.2,0.8-0.1,1.3c-0.2,0.4-0.4,0.3-0.5,0.4c-0.1-0.2-0.3-0.4-0.5-0.5c0.2,0.2,0.3,0.5,0.4,0.7
			C3,34.5,3,34.3,2.5,34.1C1.5,33.2,2.6,34.5,1.8,32.6 M3.2,35.2c0,0.1,0,0.1,0,0.2c-0.1-0.3-0.4-0.6-0.7-0.8
			C2.8,34.8,3,35,3.2,35.2 M3.1,36c0.1-0.4,0.5-0.8,0.8-1.4c-0.1,0.6,0.1,0.8-0.2,1.4c-0.2,0.4-0.4,0.4-0.5,0.5
			c-0.1-0.2-0.3-0.3-0.4-0.4c0.2,0.2,0.2,0.4,0.3,0.7c-0.1-0.1-0.1-0.3-0.5-0.4C2,35.9,2.3,35.7,2.1,35C2.3,34.9,3,35.5,3.1,36
			 M2.2,36.6c0.3-0.1,1.1,0.5,1.3,0.9c0-0.3,0.4-0.9,0.6-1.4c0,0.6,0.3,0.8,0,1.4C4,38,3.8,38,3.7,38.1c-0.1-0.2-0.3-0.3-0.5-0.4
			c0.2,0.1,0.3,0.4,0.4,0.6c-0.1-0.1-0.1-0.2-0.6-0.2C2.3,37.7,2.5,37.3,2.2,36.6 M4.2,39.7c0-0.3,0.4-0.9,0.6-1.4
			c0,0.6,0.3,0.7,0.1,1.4c-0.1,0.4-0.3,0.4-0.4,0.6C4.3,40.1,4.2,40,4,39.9c0.2,0.2,0.3,0.4,0.4,0.6c-0.1-0.1-0.1-0.2-0.6-0.2
			c-0.8-0.4-0.5-0.8-0.9-1.4C3.1,38.7,4,39.3,4.2,39.7 M3.3,40.5c0.2-0.1,1.2,0.3,1.5,0.7c-0.1-0.3,0.2-0.9,0.3-1.5
			c0.1,0.6,0.4,0.7,0.3,1.3c-0.1,0.5-0.2,0.5-0.3,0.6c-0.2-0.1-0.4-0.2-0.6-0.2c0.2,0.1,0.4,0.3,0.6,0.5C5,41.8,5,41.7,4.6,41.8
			C3.8,41.5,3.9,41.1,3.3,40.5 M4.3,42.4c0.2-0.1,1.2,0.3,1.5,0.8c-0.1-0.3,0.2-0.9,0.4-1.4c0.1,0.5,0.4,0.7,0.3,1.3
			c-0.1,0.4-0.3,0.5-0.3,0.6c-0.2-0.1-0.4-0.2-0.6-0.3c0.2,0.1,0.4,0.3,0.6,0.5C6,43.8,6,43.7,5.5,43.7C4.6,43.4,4.8,43,4.3,42.4
			 M5,44c0.2-0.1,1.3,0.2,1.7,0.5c-0.1-0.3,0.1-0.9,0.2-1.4c0.2,0.5,0.5,0.6,0.5,1.2c0,0.4-0.2,0.5-0.3,0.6
			c-0.2-0.1-0.4-0.1-0.7-0.2c0.2,0.1,0.5,0.2,0.6,0.4c-0.2,0-0.2-0.2-0.7-0.1C5.6,44.9,5.6,44.5,5,44 M7.4,45.6c0,0.1,0,0.2,0.1,0.2
			c-0.2-0.2-0.5-0.3-0.9-0.4C7,45.4,7.2,45.5,7.4,45.6 M6.1,45.7c0.2-0.1,1.3,0.2,1.7,0.6C7.7,46,7.9,45.5,8,44.9
			c0.2,0.5,0.5,0.6,0.5,1.2c0,0.4-0.2,0.5-0.3,0.6c-0.2-0.1-0.4-0.2-0.7-0.2C7.8,46.6,8,46.8,8.2,47C8,46.9,8,46.8,7.5,46.8
			C6.6,46.6,6.7,46.2,6.1,45.7 M9.9,48.5c-0.2-0.1-0.4-0.3-0.7-0.2c-0.9-0.1-1.2-0.7-1.9-1.1c0.2-0.2,1.4,0.1,1.8,0.4
			c-0.2-0.3,0-0.8-0.1-1.3c0.3,0.5,0.7,0.5,0.7,1.1c0.1,0.5,0.1,0.7,0.2,1c-0.1-0.1-0.3-0.3-0.5-0.3C9.7,48.1,9.8,48.2,9.9,48.5
			 M8.8,47.1L8.8,47.1L8.8,47.1L8.8,47.1z M14.9,50.9c-2.1-0.6-3.8-1.6-4.3-2.3c-0.2-0.4-0.2-0.8-0.3-1.4c0,0,0,0,0,0
			c1.5,1.2,3.1,2.1,4.8,2.6h-0.2C14.3,50.4,14.6,50.7,14.9,50.9 M17.3,49.2c-5.7-0.1-9-4.7-10.3-7c-0.2-0.3,3.2-1.3,4-1.5l0.9-0.2
			c0,0.4,0.8,0.6,0.7,0.4c0.2,0.1-0.1,0.4,0.4,0.7c0.5,0.3,0.7,0.1,0.8,0c-0.3,0.3,0.7,0.8,1.3,0.5c-0.1,0.3,0.4,0.4,0.5,0.4
			c0.2,0.1,0.7,0.2,1.1,0v3.1c0.1,0.6,0.1,0.7,0.4,0.8c1.3,0.1,1-0.3,1.1-0.7c0-1.3-0.1-3.3-0.1-3.3c0.9-0.1,0.6-0.3,1-0.4
			c0.4,0.1,0.6,0,0.9-0.4c0.5,0,0.8-0.1,1-0.5c0.4,0.1,0.9-0.2,1.2-0.9c0.8,0.3,3.9,1.9,5.3,2.3C26.8,43.6,23.3,49.2,17.3,49.2
			 M27.1,45.9c0.1-0.1,0.3-0.1,0.5-0.1c-0.2,0.1-0.4,0.2-0.6,0.3C27.1,46.1,27.1,46,27.1,45.9 M25.8,47.4
			C25.8,47.4,25.7,47.4,25.8,47.4C25.7,47.4,25.8,47.4,25.8,47.4 M24.3,47.4c-0.1,0.5-0.2,0.9-0.3,1.3c-0.5,1-3.1,1.8-4.2,2.2
			c0.3-0.3,0.5-0.9,0.1-1.2h-0.1C21.4,49.3,22.9,48.5,24.3,47.4C24.3,47.4,24.3,47.4,24.3,47.4 M25.6,48.4c-0.4-0.1-0.7,0.2-0.9,0.3
			c0.2-0.2,0.3-0.5,0.5-0.6c-0.2,0.1-0.4,0.2-0.6,0.3c0-0.2,0-0.4,0-0.8c0.1-0.6,0.4-0.6,0.8-1.1c0,0.5,0.1,1.1-0.1,1.4
			c0.5-0.3,1.7-0.5,1.9-0.4C26.5,47.8,26.5,48.3,25.6,48.4 M27.1,47.1c-0.5-0.1-0.5,0.1-0.7,0.1c0.2-0.2,0.4-0.3,0.7-0.5
			c-0.2,0-0.5,0.1-0.7,0.2c0-0.1-0.3-0.2-0.3-0.6c0-0.6,0.3-0.7,0.5-1.2c0.1,0.5,0.3,1.1,0.2,1.4c0.4-0.4,1.5-0.7,1.8-0.6
			C27.9,46.5,28,46.9,27.1,47.1 M28.1,45.5c-0.5-0.1-0.5,0-0.7,0.1c0.2-0.2,0.4-0.4,0.7-0.4c-0.2,0-0.5,0.1-0.7,0.2
			c0-0.1-0.2-0.2-0.2-0.6c0-0.6,0.3-0.7,0.5-1.2c0,0.5,0.3,1.1,0.2,1.4c0.4-0.4,1.5-0.7,1.7-0.5C29,44.9,29,45.3,28.1,45.5
			 M29.1,44.1c-0.5,0-0.5,0.1-0.7,0.2c0.2-0.2,0.3-0.4,0.6-0.5c-0.2,0-0.4,0.1-0.6,0.3c-0.1-0.1-0.3-0.1-0.4-0.6
			c-0.1-0.6,0.2-0.8,0.3-1.3c0.1,0.5,0.5,1.1,0.4,1.4c0.3-0.5,1.3-0.9,1.6-0.8C29.9,43.3,30,43.8,29.1,44.1 M30.2,42.1
			c-0.5,0-0.5,0.1-0.6,0.2c0.2-0.2,0.3-0.4,0.6-0.5c-0.2,0.1-0.4,0.1-0.6,0.3c-0.1-0.1-0.3-0.2-0.3-0.6c-0.1-0.6,0.2-0.8,0.3-1.3
			c0.1,0.6,0.4,1.2,0.4,1.5c0.3-0.4,1.3-0.8,1.6-0.7C30.9,41.4,31,41.9,30.2,42.1 M31,40.5c-0.5,0-0.4,0.1-0.6,0.2
			c0.1-0.2,0.3-0.5,0.4-0.6c-0.2,0.1-0.4,0.2-0.5,0.4c-0.1-0.1-0.3-0.1-0.4-0.6c-0.2-0.6,0.1-0.8,0.1-1.4c0.2,0.6,0.6,1.1,0.6,1.4
			c0.3-0.5,1.1-1,1.4-0.9C31.5,39.7,31.7,40.2,31,40.5 M31.1,39c0.1-0.1,0.2-0.1,0.4-0.2C31.4,38.9,31.2,38.9,31.1,39 M31.7,38.3
			c-0.5,0-0.4,0.2-0.6,0.2c0.1-0.2,0.3-0.4,0.4-0.6c-0.2,0.1-0.4,0.2-0.5,0.3c-0.1-0.1-0.3-0.1-0.4-0.6c-0.2-0.6,0-0.8,0.1-1.4
			c0.2,0.6,0.6,1.1,0.6,1.5c0.2-0.5,1.1-1.1,1.3-1C32.3,37.5,32.5,38,31.7,38.3"/>
		<path fill="#FACC65" d="M12.9,12c0.5-0.2,0.7-0.4,0.7-0.4l-1.7-0.4l1.8-0.4c0,0,0-0.1-1.1-0.4c-0.2-0.1,0-0.3-0.9-0.4
			c0.3-0.1,0.2,0.1,0.8,0.2c0.4,0,0.7,0.1,1.3,0c0,0-1-0.8-1.7-1.2c0,0,1.1,0.3,2,0.5c0-0.1-0.7-0.6-1.2-1.2
			c-0.1-0.1-0.1-0.2-0.3-0.3C13,8.1,13,8.2,13.3,8.4c0.3,0.1,0.9,0.4,1.1,0.4C13.9,8.1,13.2,7,13.2,7L15,8.2c-0.1-0.5-0.4-0.8-0.4-1
			c-0.2-0.8-0.1-0.7-0.3-1c0.5,0.7,0.7,1.1,1.4,1.6l-0.3-2.2l1.1,1.9c0.1-0.3,0-0.8,0-1c0.1-1,0.1-0.4,0-1.2
			c0.1,0.4,0.1,0.3,0.2,0.9c0.2,0.4,0.3,0.8,0.6,1.2l0.4-2.1c0,0,0.3,2.1,0.3,2.1C18,7,18,6.7,18.2,6.4c0.3-0.6,0.4-1,0.4-1
			c-0.2,0.9-0.1,0.6-0.2,1c0,0.4,0,1.1,0.1,1.1l1.3-1.8l-0.5,2.2c0.1-0.1,0.7-0.7,1.1-1.1c0.1-0.1,0.4-0.5,0.4-0.5
			c-0.3,0.4-0.4,0.6-0.6,0.9c-0.2,0.5-0.2,0.3-0.4,1.1L21.7,7l-1.2,1.8c0,0,0.1,0,0.9-0.4c0.5-0.1,0.9-0.3,1.1-0.5
			c-0.6,0.5-0.9,0.5-1.7,1.5L23,9c0,0-1.7,1-1.8,1.1c0.1,0.1,0.8-0.1,1.4,0c0.5,0,0.5,0,0.9,0c-0.5,0.2-0.7,0.1-1.3,0.3
			c-0.3,0.1-0.8,0.3-0.8,0.5l2.1,0.4c0,0-2,0.5-2.4,0.6c-0.1,0-0.2,0-0.4,0c-0.1,0-0.2,0-0.3,0c0.1-0.1,0.1-0.3,0.1-0.4
			c-0.7,0.2-1.3,0-1.9,0.1c0.1-0.2,0.1-0.3,0-0.4c-0.9,0.4-1.6,0.2-2.3,0.8c0-0.2,0-0.4-0.1-0.6c-0.7,0.4-1.4,0.1-1.9,0.6
			c0-0.2,0-0.3,0-0.4c-0.8,0.3-1.4,0.4-2,1c-0.1,0-0.3,0-0.5-0.1c0,0,0-0.1-0.1-0.1c0,0-0.1,0-0.1,0.1c-0.1,0-0.2,0-0.4,0
			C12.1,12.2,12.5,12.2,12.9,12"/>
		<path fill="#231F20" d="M20.3,9.8l0.2,0c0,0-0.1-1-1.9-0.9h-0.4c0,0-0.2,0.5-0.2,0.5l1.2-0.1C19.2,9.4,20,9.3,20.3,9.8"/>
		<path fill="#231F20" d="M18.4,10.4c0,0,0.3-0.3,0.3-0.3s0,0,0.1,0c0,0,0,0.1,0,0.1c0,0.2,0.1,0.3,0.3,0.4c0,0,0.3,0,0.3,0
			c0.2-0.1,0.3-0.2,0.3-0.4c0,0,0-0.1,0-0.1c0.2,0,0.3,0.1,0.4,0.3l0.4,0c0,0-0.2-0.9-1.8-0.7c0,0-0.4,0.6-0.4,0.6
			C18,10.4,18.4,10.4,18.4,10.4"/>
		<path fill="#231F20" d="M14.7,10.4l0.4,0c0.1-0.2,0.3-0.2,0.4-0.3c0,0,0,0.1,0,0.1c0,0.2,0.1,0.3,0.3,0.4c0,0,0.3,0,0.3,0
			c0.2-0.1,0.3-0.2,0.3-0.4c0,0,0,0,0-0.1c0,0,0.1,0,0.1,0s0.2,0.2,0.2,0.2c0,0,0.4,0,0.4,0c0,0-0.4-0.6-0.4-0.6
			C14.9,9.5,14.7,10.4,14.7,10.4"/>
		<path fill="#231F20" d="M15.7,9.4l1.2,0.1c0,0-0.1-0.5-0.1-0.5h-0.3c-1.8-0.1-2,0.8-2,0.8l0.2,0C14.9,9.3,15.7,9.4,15.7,9.4"/>
		<path fill="#0D9F5D" d="M32.8,35c-0.3,0.7,0,1.2-0.6,1.7c-0.4,0.1-0.4,0.2-0.5,0.3c0.1-0.3,0.2-0.5,0.3-0.7
			c-0.2,0.1-0.3,0.2-0.4,0.4c-0.1-0.1-0.3-0.1-0.5-0.5c-0.3-0.6-0.1-0.8-0.2-1.4c0.3,0.5,0.8,1,0.9,1.4C31.8,35.6,32.5,34.9,32.8,35
			"/>
		<path fill="#0D9F5D" d="M33.1,32.6c-0.3,0.8-0.1,1.1-0.8,1.7c-0.5,0.2-0.4,0.3-0.6,0.5c0.1-0.3,0.2-0.5,0.4-0.7
			c-0.2,0.2-0.4,0.3-0.5,0.5c-0.1-0.1-0.3,0-0.5-0.4c-0.3-0.5,0-0.8-0.1-1.4c0.3,0.4,0.7,0.8,0.8,1.1C32,33.4,32.8,32.6,33.1,32.6"
			/>
		<path fill="#0D9F5D" d="M31.8,31.9c0.1-0.5,0.8-1.5,1.1-1.5c-0.2,0.8,0.1,1.1-0.5,1.8c-0.4,0.3-0.4,0.4-0.5,0.5
			c0-0.3,0.1-0.5,0.3-0.8c-0.2,0.2-0.3,0.4-0.4,0.6c-0.1,0-0.3,0-0.6-0.3c-0.4-0.4-0.2-0.8-0.3-1.3C31.2,31.3,31.7,31.6,31.8,31.9"
			/>
		<path fill="#0D9F5D" d="M32.9,28.1c-0.2,0.8,0.1,1.1-0.5,1.7c-0.4,0.2-0.4,0.3-0.5,0.5c0-0.3,0.1-0.5,0.3-0.7
			c-0.2,0.2-0.3,0.3-0.4,0.5c-0.1,0-0.3,0-0.6-0.3c-0.4-0.5-0.2-0.7-0.3-1.3c0.4,0.4,0.9,0.7,1,1C31.9,29,32.6,28.1,32.9,28.1"/>
		<path fill="#0D9F5D" d="M31.7,27.9c0-0.5,0.5-1.5,0.8-1.6c0,0.8,0.3,1-0.2,1.8c-0.4,0.3-0.3,0.4-0.4,0.5c0-0.3,0-0.5,0.1-0.8
			c-0.1,0.2-0.3,0.4-0.3,0.6c-0.1,0-0.3,0.1-0.6-0.3c-0.5-0.4-0.3-0.7-0.6-1.2C31,27.4,31.6,27.6,31.7,27.9"/>
		<path fill="#0D9F5D" d="M12,14c0.1-0.1,0.2-0.1,0.3-0.6c0.3-1,0.8-0.9,1.5-1.3c0.2,0.3-0.6,1.4-1.1,1.7c0.3,0,0.8,0.4,1.2,0.5
			c-0.6,0.1-0.8,0.4-1.3,0.2c-0.4-0.1-0.4-0.3-0.5-0.4c0.2-0.2,0.3-0.4,0.4-0.6C12.5,13.7,12.3,13.9,12,14"/>
		<path fill="#0D9F5D" d="M21.4,13.7c-0.2,0-0.4-0.1-0.6-0.1c0.3-0.1,0.6-0.2,0.8-0.4c0.5,0.1,1,0.4,1,0.8c-0.5-0.1-0.5,0.2-1.2,0.3
			c-0.6,0.1-0.9-0.2-1.5-0.3c-0.2-0.1-0.2-0.3-0.2-0.4c0.3,0.1,0.6,0.1,0.8,0l0,0.1C20.9,13.8,21.2,13.8,21.4,13.7"/>
		<path fill="#0D9F5D" d="M19.5,12.9c0.3,0,0.6-0.1,0.8-0.2c-0.2,0-0.4,0-0.6,0c0.4-0.2,0.6-0.5,1.1-0.5c0.7,0,0.7,0.4,1.1,0.2
			C22,12.8,20,13.7,19.5,12.9"/>
		<path fill="#0D9F5D" d="M18.5,12.8c0.3,0.1,0.6,0.7,1,1c-0.5-0.2-0.8,0-1.3-0.4c-0.3-0.3-0.3-0.5-0.3-0.6c0.2-0.1,0.4-0.2,0.5-0.4
			c-0.2,0.1-0.5,0.2-0.7,0.2c0.1-0.1,0.3,0,0.5-0.5c0.6-0.6,1-0.3,1.7-0.4C19.9,12.1,19,12.7,18.5,12.8"/>
		<path fill="#0D9F5D" d="M16.9,12.9c0.3,0,0.7,0.5,1.1,0.8c-0.5,0-0.8,0.2-1.3-0.1c-0.4-0.2-0.3-0.4-0.4-0.5
			c0.2-0.1,0.3-0.3,0.5-0.5c-0.2,0.2-0.4,0.3-0.7,0.4c0.1-0.2,0.2-0.1,0.4-0.6c0.6-0.7,0.8-0.4,1.5-0.8C18.1,12,17.4,12.8,16.9,12.9
			"/>
		<path fill="#0D9F5D" d="M15.8,13.9c-0.5,0-0.8,0.3-1.3,0c-0.4-0.2-0.3-0.3-0.4-0.4c0.2-0.1,0.3-0.3,0.5-0.5
			c-0.2,0.2-0.4,0.3-0.7,0.4c0.1-0.1,0.2-0.1,0.4-0.6c0.5-0.8,0.9-0.5,1.6-0.9c0,0.3-0.7,1.1-1.2,1.3C14.9,13.2,15.3,13.7,15.8,13.9
			"/>
		<path fill="#0D9F5D" d="M31.9,24.1c0,0.8,0.3,1-0.2,1.7c-0.4,0.3-0.3,0.4-0.4,0.5c0-0.3,0-0.5,0.1-0.8c-0.1,0.2-0.3,0.4-0.3,0.6
			c-0.1-0.1-0.3,0-0.6-0.3c-0.5-0.4-0.3-0.7-0.6-1.2c0.4,0.3,1.1,0.6,1.2,0.9C31.1,25.1,31.6,24.1,31.9,24.1"/>
		<path fill="#0D9F5D" d="M30.7,24c-0.1-0.5,0.2-1.5,0.5-1.6c0.1,0.8,0.5,1,0.2,1.7c-0.3,0.3-0.2,0.4-0.3,0.6
			c-0.1-0.3-0.1-0.5,0-0.7c-0.1,0.2-0.2,0.4-0.2,0.6c-0.1,0-0.3,0.1-0.7-0.2c-0.6-0.3-0.5-0.7-0.8-1.1C29.8,23.6,30.5,23.7,30.7,24"
			/>
		<path fill="#0D9F5D" d="M30.1,20.2c0.1,0.8,0.5,1,0.2,1.7c-0.3,0.3-0.2,0.4-0.3,0.5c0-0.3-0.1-0.5,0-0.7c-0.1,0.2-0.2,0.4-0.2,0.6
			c-0.1,0-0.3,0.1-0.7-0.2c-0.6-0.4-0.5-0.7-0.8-1.2c0.5,0.3,1.2,0.5,1.4,0.8C29.5,21.3,29.8,20.3,30.1,20.2"/>
		<path fill="#0D9F5D" d="M29.1,18.7c0.2,0.7,0.7,0.9,0.5,1.7c-0.3,0.3-0.2,0.4-0.2,0.6c-0.1-0.2-0.2-0.5-0.2-0.7
			c-0.1,0.2-0.1,0.4-0.1,0.6c-0.1,0-0.3,0.1-0.7-0.1c-0.6-0.3-0.6-0.6-1-1.1c0.5,0.2,1.2,0.3,1.5,0.6C28.7,19.8,28.8,18.8,29.1,18.7
			"/>
		<path fill="#0D9F5D" d="M27.6,16.5c0.3,0.7,0.6,0.7,0.6,1.6c-0.2,0.5-0.1,0.5,0,0.7c-0.1-0.3-0.2-0.5-0.3-0.8c0,0.2,0,0.5,0.1,0.7
			c-0.1,0-0.2,0.2-0.6,0.1c-0.6-0.1-0.6-0.5-1-0.8c0.5,0.1,1.1,0,1.4,0.2C27.4,17.8,27.5,16.7,27.6,16.5"/>
		<path fill="#0D9F5D" d="M26.4,16.9c-0.3-0.4-0.4-1.5-0.2-1.7c0.4,0.7,0.7,0.5,0.7,1.5c-0.1,0.5,0,0.5,0,0.7
			c-0.2-0.2-0.3-0.5-0.4-0.7c0,0.2,0,0.5,0.1,0.7c-0.1,0-0.2,0.2-0.6,0.2c-0.6,0-0.7-0.4-1.1-0.7C25.5,16.9,26.1,16.8,26.4,16.9"/>
		<path fill="#0D9F5D" d="M24.4,13.6c0.4,0.6,0.9,0.6,1,1.5c-0.1,0.5,0,0.5,0,0.7c-0.2-0.2-0.3-0.4-0.4-0.7c0,0.3,0.1,0.5,0.2,0.7
			c-0.1,0.1-0.2,0.2-0.6,0.2c-0.6,0-0.7-0.3-1.2-0.6c0.5,0,1.1-0.2,1.4-0.1C24.5,15,24.2,13.9,24.4,13.6"/>
		<path fill="#0D9F5D" d="M23.9,13.8c-0.1,0.5,0.1,0.5,0.2,0.7c-0.1,0-0.1,0-0.1,0c-0.2-0.2-0.4-0.4-0.4-0.6
			c0.1,0.4,0.1,0.6,0.2,0.8c0,0.1-0.1,0.1-0.4,0.2c-0.7,0-0.9-0.1-1.2-0.3c0.5-0.2,0.7-0.5,1.2-0.3c0,0,0-0.1,0-0.1h0c0,0,0,0,0,0
			c-0.1-0.2-0.2-0.3-0.4-0.5c-0.2-0.4-0.4-0.8-0.3-1C23.1,13.1,23.7,12.9,23.9,13.8"/>
		<path fill="#0D9F5D" d="M10.4,14.5c0.2-0.8,0.7-0.7,1.2-1.3c0.1,0.2-0.2,1.2-0.7,1.6c0.3-0.1,0.9,0.2,1.4,0.3
			c-0.5,0.1-0.7,0.5-1.2,0.4c-0.5-0.1-0.5-0.2-0.6-0.3c0.1-0.2,0.2-0.4,0.2-0.6c-0.1,0.2-0.3,0.4-0.5,0.6
			C10.3,15,10.5,14.9,10.4,14.5"/>
		<path fill="#0D9F5D" d="M9.1,15.5c0.1-0.9,0.5-0.8,1-1.5c0.1,0.2-0.1,1.3-0.4,1.7c0.3-0.1,0.9,0,1.4,0.1c-0.5,0.2-0.6,0.6-1.1,0.6
			c-0.4,0-0.5-0.2-0.6-0.2c0.1-0.2,0.1-0.4,0.1-0.7c-0.1,0.3-0.2,0.5-0.4,0.7C9.1,16,9.2,16,9.1,15.5"/>
		<path fill="#0D9F5D" d="M7.6,16.8c0.1-0.9,0.3-0.8,0.7-1.5c0.2,0.2,0.1,1.3-0.2,1.7c0.3-0.2,0.8,0,1.4,0c-0.5,0.3-0.5,0.6-1.1,0.7
			c-0.4,0-0.5-0.2-0.6-0.2C7.9,17.2,8,17,8,16.7c0,0.3-0.2,0.5-0.4,0.7C7.6,17.3,7.8,17.2,7.6,16.8"/>
		<path fill="#0D9F5D" d="M7,16.7c0.2,0.2,0.2,1.3-0.1,1.8c0.3-0.2,0.8-0.1,1.4-0.2c-0.4,0.3-0.5,0.7-1,0.8C6.9,19.2,6.8,19,6.7,19
			c0.1-0.2,0.1-0.5,0.1-0.7c0,0.3-0.1,0.5-0.3,0.8c0-0.2,0.1-0.2-0.1-0.7C6.4,17.4,6.7,17.4,7,16.7"/>
		<path fill="#0D9F5D" d="M5.5,18.8c0.2,0.1,0.4,1.1,0.2,1.6C6,20.2,6.6,20,7.2,19.8c-0.4,0.4-0.4,0.7-1,1C5.8,21,5.6,20.9,5.5,21
			c0-0.2,0-0.4-0.1-0.6c0,0.2-0.1,0.5-0.2,0.8c0-0.2,0.1-0.3-0.2-0.6C4.8,19.7,5.3,19.5,5.5,18.8"/>
		<path fill="#0D9F5D" d="M4.4,22.1c-0.4-0.7,0.1-1,0.1-1.7c0.3,0.1,0.6,1,0.5,1.5c0.2-0.3,0.8-0.5,1.4-0.8
			c-0.3,0.5-0.2,0.8-0.8,1.1c-0.4,0.3-0.5,0.2-0.7,0.2c0-0.2-0.1-0.4-0.2-0.6c0.1,0.2,0,0.5,0,0.7C4.6,22.5,4.7,22.4,4.4,22.1"/>
		<path fill="#0D9F5D" d="M3.6,22.5c0.2,0.1,0.6,1,0.5,1.6c0.2-0.3,0.9-0.5,1.4-0.7c-0.3,0.4-0.3,0.8-0.8,1.1
			c-0.4,0.3-0.5,0.1-0.7,0.2c0-0.2-0.1-0.4-0.2-0.6c0.1,0.2,0,0.5,0,0.7c0-0.2,0-0.3-0.3-0.6C3.1,23.4,3.5,23.2,3.6,22.5"/>
		<path fill="#0D9F5D" d="M3.1,25.8c-0.5-0.7-0.1-1-0.2-1.7c0.3,0,0.8,1,0.8,1.5c0.1-0.3,0.8-0.6,1.2-0.9c-0.2,0.5-0.1,0.8-0.6,1.2
			c-0.3,0.3-0.5,0.2-0.6,0.3c-0.1-0.2-0.2-0.4-0.3-0.6c0.1,0.2,0.1,0.5,0.1,0.7C3.4,26.2,3.5,26.1,3.1,25.8"/>
		<path fill="#0D9F5D" d="M2.3,26.3c0.3,0,0.7,1,0.8,1.5c0.2-0.3,0.7-0.5,1.2-0.9c-0.2,0.5-0.1,0.8-0.6,1.2
			c-0.3,0.3-0.5,0.2-0.6,0.2c0-0.2-0.2-0.4-0.3-0.6c0.1,0.2,0.1,0.5,0.1,0.8c-0.1-0.2,0-0.3-0.4-0.5C2,27.3,2.4,27.1,2.3,26.3"/>
		<path fill="#0D9F5D" d="M3.1,30c-0.1-0.2-0.2-0.4-0.4-0.5c0.1,0.2,0.2,0.5,0.3,0.7c-0.1-0.1-0.1-0.3-0.5-0.5
			c-0.6-0.7-0.4-0.8-0.6-1.6c0.3,0,1,0.8,1.1,1.3c0.1-0.3,0.6-0.6,1-1C3.8,29,4,29.2,3.7,29.7C3.4,30,3.2,30,3.1,30"/>
		<path fill="#0D9F5D" d="M1.9,30.4c0.3,0.1,1,0.9,1.1,1.4c0.1-0.3,0.6-0.6,1-1c-0.1,0.5,0.1,0.8-0.3,1.3c-0.3,0.3-0.4,0.2-0.5,0.3
			C3,32.2,2.8,32,2.7,31.8c0.1,0.2,0.2,0.5,0.3,0.7c-0.1-0.1-0.1-0.3-0.5-0.5C1.9,31.4,2.1,31.2,1.9,30.4"/>
		<path fill="#0D9F5D" d="M1.8,32.6c0.3,0,1,0.7,1.2,1.2c0-0.3,0.5-0.7,0.8-1.1c0,0.6,0.2,0.8-0.1,1.3c-0.2,0.4-0.4,0.3-0.5,0.4
			c-0.1-0.2-0.3-0.4-0.5-0.5c0.2,0.2,0.3,0.5,0.4,0.7C3,34.5,3,34.3,2.5,34.1C1.5,33.2,2.6,34.5,1.8,32.6"/>
		<path fill="#0D9F5D" d="M3.2,36c0-0.3,0.5-0.8,0.8-1.4c-0.1,0.6,0.1,0.8-0.2,1.4c-0.2,0.5-0.4,0.4-0.5,0.5
			c-0.1-0.2-0.3-0.3-0.5-0.4c0.2,0.2,0.3,0.4,0.3,0.7c-0.1-0.1-0.1-0.3-0.5-0.4C2,35.9,2.3,35.7,2.1,35C2.3,34.9,3,35.5,3.2,36"/>
		<path fill="#0D9F5D" d="M2.2,36.6c0.2-0.1,1.1,0.5,1.3,1c0-0.3,0.4-0.9,0.6-1.5c0,0.6,0.3,0.8,0.1,1.4C4,38,3.8,38,3.7,38.1
			c-0.1-0.2-0.3-0.3-0.5-0.4c0.2,0.2,0.3,0.4,0.4,0.6c-0.1-0.1-0.1-0.2-0.6-0.2C2.4,37.7,2.5,37.3,2.2,36.6"/>
		<path fill="#0D9F5D" d="M4.2,39.7c0-0.3,0.4-0.9,0.6-1.4c0,0.6,0.3,0.7,0.1,1.4c-0.1,0.5-0.3,0.5-0.4,0.6C4.4,40.1,4.2,40,4,39.9
			c0.2,0.2,0.3,0.4,0.4,0.6c-0.2-0.1-0.1-0.2-0.6-0.2c-0.8-0.4-0.6-0.8-0.9-1.4C3.2,38.7,4,39.3,4.2,39.7"/>
		<path fill="#0D9F5D" d="M3.4,40.5c0.2-0.1,1.2,0.3,1.5,0.7c-0.1-0.3,0.2-0.9,0.3-1.5c0.1,0.5,0.4,0.7,0.3,1.3
			c-0.1,0.5-0.2,0.5-0.3,0.6c-0.2-0.2-0.4-0.2-0.6-0.3c0.2,0.1,0.4,0.3,0.6,0.5c-0.2,0-0.2-0.2-0.6-0.1C3.8,41.5,3.9,41.1,3.4,40.5"
			/>
		<path fill="#0D9F5D" d="M4.3,42.4c0.2-0.1,1.2,0.3,1.5,0.7c-0.1-0.3,0.3-0.9,0.4-1.4c0.1,0.5,0.4,0.7,0.3,1.3
			c-0.1,0.4-0.3,0.5-0.3,0.6c-0.2-0.1-0.4-0.2-0.6-0.3c0.2,0.1,0.4,0.3,0.5,0.5C6,43.8,6,43.7,5.5,43.7C4.7,43.4,4.8,43,4.3,42.4"/>
		<path fill="#0D9F5D" d="M5,44c0.2-0.1,1.3,0.1,1.7,0.5c-0.1-0.3,0.1-0.9,0.2-1.4c0.2,0.5,0.5,0.6,0.5,1.2c0,0.4-0.2,0.5-0.2,0.6
			c-0.2-0.1-0.4-0.1-0.7-0.2C6.8,44.8,7,45,7.2,45.1c-0.2,0-0.2-0.2-0.7-0.1C5.6,44.9,5.6,44.5,5,44"/>
		<path fill="#0D9F5D" d="M6.1,45.7c0.2-0.1,1.3,0.3,1.7,0.6C7.7,46,7.9,45.5,8,44.9c0.2,0.5,0.5,0.6,0.5,1.2c0,0.4-0.2,0.5-0.3,0.6
			c-0.2-0.1-0.4-0.2-0.7-0.2C7.8,46.6,8,46.8,8.2,47C8,46.9,8,46.8,7.5,46.8C6.6,46.6,6.7,46.2,6.1,45.7"/>
		<path fill="#0D9F5D" d="M9.9,48.5c-0.2-0.1-0.4-0.3-0.7-0.2c-0.9-0.1-1.2-0.7-1.9-1.1c0.2-0.2,1.4,0.1,1.8,0.4
			c-0.2-0.3,0-0.8-0.1-1.3c0.3,0.5,0.7,0.5,0.7,1.1c0.1,0.5,0.1,0.7,0.2,1c-0.1-0.1-0.3-0.3-0.5-0.3C9.7,48.1,9.8,48.3,9.9,48.5"/>
		<path fill="#0D9F5D" d="M25.6,48.4c-0.4-0.1-0.7,0.2-0.9,0.3c0.2-0.2,0.3-0.5,0.5-0.6c-0.2,0-0.4,0.1-0.5,0.2c0-0.2,0-0.4,0-0.8
			c0.1-0.6,0.5-0.6,0.8-1.1c-0.1,0.5,0.1,1.1-0.1,1.4c0.5-0.3,1.6-0.5,1.9-0.4C26.5,47.9,26.5,48.3,25.6,48.4"/>
		<path fill="#0D9F5D" d="M27.1,47.1c-0.5-0.1-0.5,0.1-0.7,0.1c0.2-0.2,0.4-0.3,0.7-0.5c-0.2,0-0.5,0.1-0.7,0.2
			c-0.1-0.1-0.2-0.2-0.3-0.6c0-0.6,0.3-0.7,0.5-1.2c0.1,0.5,0.3,1.1,0.2,1.4c0.4-0.4,1.5-0.7,1.8-0.6C27.9,46.5,28,46.9,27.1,47.1"
			/>
		<path fill="#0D9F5D" d="M28.1,45.5c-0.5-0.1-0.5,0-0.7,0.1c0.2-0.2,0.4-0.4,0.7-0.4c-0.2,0-0.5,0.1-0.7,0.2
			c-0.1-0.1-0.2-0.2-0.3-0.6c0-0.6,0.3-0.7,0.5-1.2c0,0.5,0.3,1.2,0.2,1.4c0.4-0.4,1.5-0.7,1.7-0.5C29,44.9,29.1,45.3,28.1,45.5"/>
		<path fill="#0D9F5D" d="M29.1,44.1c-0.5,0-0.5,0.1-0.6,0.2c0.2-0.2,0.3-0.4,0.6-0.5c-0.2,0-0.4,0.1-0.6,0.3
			c-0.1-0.1-0.3-0.1-0.4-0.6c-0.1-0.6,0.2-0.8,0.3-1.3c0.2,0.5,0.5,1.1,0.4,1.4c0.3-0.4,1.3-0.9,1.6-0.8
			C29.9,43.3,30,43.8,29.1,44.1"/>
		<path fill="#0D9F5D" d="M30.2,42.1c-0.5-0.1-0.5,0.1-0.6,0.1c0.2-0.2,0.3-0.4,0.6-0.5c-0.2,0-0.4,0.1-0.6,0.3
			c-0.1-0.1-0.3-0.2-0.3-0.6c-0.1-0.6,0.2-0.8,0.3-1.3c0.1,0.6,0.4,1.2,0.3,1.5c0.3-0.4,1.3-0.8,1.6-0.7
			C30.9,41.4,31.1,41.9,30.2,42.1"/>
		<path fill="#0D9F5D" d="M31,40.5c-0.5,0-0.5,0.2-0.6,0.2c0.1-0.2,0.3-0.4,0.4-0.6c-0.2,0.1-0.4,0.2-0.5,0.4
			c-0.1-0.1-0.3-0.1-0.4-0.6c-0.2-0.6,0-0.8,0.1-1.4c0.2,0.5,0.6,1.1,0.6,1.4c0.3-0.5,1.1-1,1.4-0.9C31.5,39.7,31.7,40.2,31,40.5"/>
		<path fill="#0D9F5D" d="M31.7,38.3c-0.5,0-0.5,0.2-0.6,0.3c0.1-0.2,0.2-0.5,0.4-0.6c-0.2,0.1-0.4,0.2-0.5,0.3
			c-0.1-0.1-0.3-0.1-0.4-0.6c-0.2-0.6,0-0.8,0.1-1.4c0.2,0.6,0.6,1.1,0.6,1.5c0.2-0.5,1.1-1.1,1.3-1C32.3,37.5,32.5,38,31.7,38.3"/>
		<path fill="#EEB880" d="M28.1,41.2c0,0-2.3,0.4-5.2-1.5c0.2-0.3,0.3-1.1,0.2-1.5c-0.1-0.4-0.1-0.1-0.2,0.2c-0.3,0.7-0.5,0.7-0.8,1
			c-0.8-0.9-1-0.9-2.1-1.5c-0.8-0.4-0.8-0.7-1.3-1c-0.8,0.4-2,1-2.5,0.6c-0.5-0.2,0.6-0.5,1-1.2c0.4-0.5,0.8-0.7,1.4-0.5
			c1.2,0.2,1.8,0.7,3.5,1.4c2.1,0.2,3.7,0.8,5.9,1.3c0.4,0.1,0.9,0.1,1.1,0.2C29,39.5,28.7,40.1,28.1,41.2"/>
		<path fill="#EEB880" d="M18.8,38.9c0.6,0.7,1.2,0.9,1.6,1.7c-0.1,0.3-0.4,0.3-0.7,0.2c-1-1.1-1.8-1.2-1.5-1.7
			c-0.2,0-0.4,0.3-0.3,0.4c0.2,0.7,1,1.1,1.3,1.7c-0.1,0.5-1.2,0-1.6-1.3l0-0.1c-0.2,0.4-0.4,0.5,0.3,1.4c0.1,0.3,0.2,0.6-0.3,0.6
			c0.1,0.1-0.3,0-0.1,0h0.1c0,0-0.1,0-0.1-0.1c0.2-1.3-1-1.1-0.9-1.1c0.2-0.4-0.5-1-1.2-0.6c0.1-0.4-0.6-0.9-1.6-0.5
			c-0.2-0.4-1.1-0.7-1.9,0.4c-1.5,0.1-4,1.5-5.6,0.8c-0.1,0.1-1-2.5-1-2.5c1.8-0.2,5.8-0.4,7.2-1c1.1-0.7,3.2-1.1,3.7-0.8
			c0,0.4-0.9,1.1-0.5,1.5c0.8,0.7,2.1,0.4,2.9-0.1c0.9,0.9,2.3,1,2.9,2.2l-0.2,0.4c-0.3,0.2-0.3,0.2-0.7-0.3
			c-0.8-1.1-1.6-0.9-1.8-1.7C18.6,38.4,18.8,38.7,18.8,38.9"/>
		<path fill="#EEB880" d="M14.7,41.2c-0.3,0.1,0.1-0.2,0.2-0.3l0.1-0.2c0.3-0.3,0.6-0.6,0.9-0.1c0.1,0.3-0.9,0.9-1.1,0.9
			c-0.2,0.1-0.2,0.1-0.3-0.1C14.4,41.4,14.5,41.2,14.7,41.2"/>
		<path fill="#EEB880" d="M13.8,41.1c-0.2,0-0.3,0.1-0.4-0.1c-0.1-0.2,0.2-0.6,0.4-0.7c0.1-0.1,0.2-0.2,0.2-0.2l0.2-0.2
			c0.4,0,0.3,0,0.4,0.2C14.7,40.3,13.9,41.1,13.8,41.1"/>
		<path fill="#EEB880" d="M16.3,41.3c0,0,0.4-0.4,0.6,0.2c0.1,0.3-0.4,0.5-0.8,0.7C15.9,42,15.4,42,16.3,41.3"/>
		<path fill="#EEB880" d="M12.7,40.4c-0.2,0.1-0.4-0.2-0.3-0.3l0.2-0.3c0.3-0.1,0.5-0.2,0.6-0.1C13.2,39.8,12.9,40.3,12.7,40.4"/>
		<path fill="#069DCD" d="M17.4,14.5c-7,0-12.7,7.4-13,16.7h25.9C30.1,21.9,24.4,14.5,17.4,14.5"/>
		<path fill="#231F20" d="M18.1,35l0-7.4c0,0,2.5,0,3.1,0c0,0,0.9-0.3,1.1-1.2c0.1-0.5-0.3-2.2-0.4-2.5c0,0-0.4-0.3-0.5-0.7
			c0,0-0.2-2.8-0.8-3.6C20,18.9,19.1,18,17.3,18c-1.9,0-2.8,1.3-2.9,2.1c-0.2,1.1,1,1.1,1,1.1s-0.5,0.4-0.7,0.7
			c-0.2,0.2-0.6,0.7-1.1,1.6c-0.5,0.9-0.8,2.4-0.6,3c0.2,0.5,1.1,1.1,2.1,1.2c1,0.1,1.7-0.1,1.7-0.1v7.3L18.1,35z"/>
		<path fill="#D94027" d="M15.4,24.9c-0.7,0-1,0.4-1.7,0.4c0,0,0.2-1.4,1.5-3c0.5-0.6,1.9-1.3,2.5-1.6l0-0.1
			c-0.6,0.1-2.1,0.4-2.6-0.3c-0.1-0.7,0.9-1.5,2.1-1.5c0.8,0,1.4,0.3,2,0.6c0.7,0.5,1,1.3,1.1,2.1c-0.9,0.4-1.1,0.6-1.2,0.6
			c0.1,0,0.3,0.1,0.6,0.1c0.3,0,0.5,0,0.7-0.1v0.5c0.1,0.1,0.1,0.1,0.2,0.2c-1.5,0.7-2.3,1-2.4,0.9c0,0,0.3,0.1,0.6,0.1
			c0.5,0,1.3-0.2,1.8-0.4c0,0.3,0,0.5,0.5,0.7l0,0l0,0c-1.6,0.9-2.2,0.8-2.3,0.7l-1.1-0.2c0.3,0.1,0.9,0.7,1.5,0.7
			c0.6,0.1,1.6-0.4,2.2-0.6l0.2,0.7c-1,0-2,1.4-3.4,0.9C17.3,25.8,16.4,24.9,15.4,24.9"/>
		<path fill="#D94027" d="M16.7,26.9c-0.7,0-1.8,0-1.9,0c-0.3-0.1-1.3-0.6-1.2-0.7c0.1,0,0.3,0,1.2-0.3
			C15.8,25.4,16.6,26.6,16.7,26.9"/>
		<path fill="#D94027" d="M21.6,26.1c0,0.2-0.3,0.7-0.5,0.7c-0.2,0-1.1,0-1.6,0c0.4,0,0.6-0.1,0.8-0.2
			C21.8,25.9,21.6,26.1,21.6,26.1"/>
		<path fill="#FFFFFF" d="M16.6,53.3c0.1-0.2,0-0.6,0-0.6s-0.5,0.7-1.2,1.2c-0.6,0.4-1.7,0.6-1.9,0.6c0.1,0.2,0.3,0.3,0.4,0.4
			c0.2,0,1-0.1,1.8-0.6C16.2,54.1,16.6,53.3,16.6,53.3"/>
		<path fill="#069DCD" d="M18.2,53.3c-0.1-0.2,0-0.6,0-0.6s0.5,0.7,1.2,1.2c0.6,0.4,1.7,0.6,1.9,0.6c0.3-0.3,0.5-0.6,0.5-0.6
			s-1-0.1-1.9-0.4c-0.9-0.3-1.4-0.9-1.4-1.1c-0.1-0.2,0.1-0.6,0.2-0.7c0.1-0.1,1.7-0.2,1.6-1.6c-0.1-1.6-2.6-1.1-3-1.1
			c-0.3-0.1-2.9-0.5-3,1.1c-0.1,1.3,1.5,1.4,1.7,1.6c0.1,0.1,0.3,0.5,0.2,0.7c-0.1,0.2-0.5,0.8-1.4,1.1C13.9,53.8,13,54,13,54
			s0.2,0.3,0.5,0.6c0.2,0,1.3-0.3,1.9-0.6c0.7-0.4,1.2-1.2,1.2-1.2s0.1,0.3,0,0.6c0,0-0.4,0.8-0.9,1.1c-0.8,0.5-1.6,0.6-1.8,0.6
			c0.2,0.2,0.5,0.3,0.8,0.3c1.6-0.1,2.3-1.9,2.3-1.9s0.2,0.2,0.5,0.2h0c0.3,0,0.5-0.2,0.5-0.2s0.6,1.8,2.3,1.9
			c0.3,0,0.5-0.1,0.7-0.3c-0.2,0-1-0.1-1.8-0.6C18.6,54.1,18.2,53.3,18.2,53.3"/>
		<path fill="#FFFFFF" d="M21.4,54.5c-0.2,0-1.3-0.3-1.9-0.6c-0.7-0.4-1.2-1.2-1.2-1.2s-0.1,0.3,0,0.6c0,0,0.4,0.7,0.9,1.1
			c0.8,0.5,1.6,0.6,1.8,0.6h0C21.1,54.8,21.2,54.7,21.4,54.5"/>
		<path fill="#FFFFFF" d="M16.2,49.7c0,0-0.4,0.3-0.5,0.7c0,0.4,0.1,0.8,0.1,0.8S15,50.8,15,50.3C15.1,49.5,16.2,49.7,16.2,49.7"/>
		<path fill="#FFFFFF" d="M18.6,49.7c0,0,0.4,0.3,0.4,0.7c0.1,0.4-0.1,0.8-0.1,0.8s0.9-0.3,0.8-0.8C19.8,49.5,18.6,49.7,18.6,49.7"
			/>
		<path fill="#FFFFFF" d="M17.5,50h-0.1c-1.4,0-0.6,1.3-0.6,1.3s0.3-0.2,0.6-0.2h0.2c0.4,0,0.6,0.2,0.6,0.2S18.9,50,17.5,50"/>
		<path fill="#FFFFFF" d="M17.5,51.8L17.5,51.8L17.5,51.8h-0.1c-0.4,0-0.4,0.2-0.4,0.4c0,0.2,0.1,1,0.4,1h0h0c0.3,0,0.4-0.8,0.4-1
			C17.8,51.9,17.9,51.8,17.5,51.8"/>
	</g>
	<g>
		<g>
			<path fill="#77787B" d="M47.3,10.7h3.4l3.7,6l3.7-6h3.4v14.2h-3.1v-9.2l-4,6h-0.1l-3.9-6v9.2h-3.1V10.7z"/>
			<path fill="#77787B" d="M64.6,10h3.2v2.7h-3.2V10z M64.6,14h3.1v10.8h-3.1V14z"/>
			<path fill="#77787B" d="M70.6,14h3.1v1.5c0.2-0.2,0.4-0.5,0.6-0.7s0.4-0.4,0.7-0.6c0.3-0.2,0.5-0.3,0.9-0.4
				c0.3-0.1,0.7-0.1,1.1-0.1c1.2,0,2.1,0.4,2.7,1.1c0.6,0.7,1,1.7,1,3v7h-3.1v-6c0-0.7-0.2-1.3-0.5-1.6c-0.3-0.4-0.8-0.6-1.4-0.6
				c-0.6,0-1.1,0.2-1.4,0.6c-0.3,0.4-0.5,0.9-0.5,1.6v6h-3.1V14z"/>
			<path fill="#77787B" d="M83.3,10h3.2v2.7h-3.2V10z M83.3,14h3.1v10.8h-3.1V14z"/>
			<path fill="#77787B" d="M93.1,25c-0.8,0-1.6-0.1-2.4-0.4c-0.8-0.3-1.6-0.7-2.3-1.2l1.3-2c0.6,0.4,1.2,0.8,1.8,1s1.1,0.3,1.6,0.3
				c0.4,0,0.8-0.1,1-0.2c0.2-0.1,0.3-0.3,0.3-0.6v0c0-0.2-0.1-0.3-0.2-0.4c-0.1-0.1-0.3-0.2-0.5-0.3c-0.2-0.1-0.4-0.2-0.7-0.3
				c-0.3-0.1-0.6-0.2-0.8-0.3c-0.4-0.1-0.8-0.2-1.1-0.4c-0.4-0.2-0.7-0.4-1-0.6c-0.3-0.2-0.6-0.6-0.8-0.9c-0.2-0.4-0.3-0.8-0.3-1.3
				v0c0-0.6,0.1-1,0.3-1.5c0.2-0.4,0.5-0.8,0.8-1.1c0.4-0.3,0.8-0.5,1.3-0.7c0.5-0.1,1-0.2,1.5-0.2c0.7,0,1.4,0.1,2.1,0.3
				c0.7,0.2,1.4,0.5,2,0.9l-1.2,2.1c-0.5-0.3-1.1-0.6-1.6-0.7c-0.5-0.2-1-0.3-1.4-0.3c-0.4,0-0.7,0.1-0.8,0.2
				c-0.2,0.1-0.3,0.3-0.3,0.5v0c0,0.1,0.1,0.3,0.2,0.4c0.1,0.1,0.3,0.2,0.5,0.3c0.2,0.1,0.4,0.2,0.7,0.3c0.3,0.1,0.5,0.2,0.8,0.3
				c0.4,0.1,0.8,0.3,1.2,0.4c0.4,0.2,0.7,0.4,1.1,0.6c0.3,0.2,0.6,0.5,0.8,0.9c0.2,0.4,0.3,0.8,0.3,1.3v0c0,0.6-0.1,1.1-0.3,1.6
				c-0.2,0.4-0.5,0.8-0.9,1.1s-0.8,0.5-1.3,0.6C94.2,24.9,93.7,25,93.1,25z"/>
			<path fill="#77787B" d="M103.1,25c-0.5,0-0.9-0.1-1.3-0.2s-0.7-0.3-1-0.5c-0.3-0.3-0.5-0.6-0.6-1c-0.2-0.4-0.2-0.9-0.2-1.6v-5.1
				h-1.3V14h1.3v-2.8h3.1V14h2.5v2.6H103v4.6c0,0.7,0.3,1.1,1,1.1c0.5,0,1-0.1,1.5-0.4v2.5c-0.3,0.2-0.7,0.3-1.1,0.5
				C104.1,24.9,103.6,25,103.1,25z"/>
			<path fill="#77787B" d="M113,25.1c-0.8,0-1.6-0.1-2.3-0.4c-0.7-0.3-1.3-0.7-1.8-1.2c-0.5-0.5-0.9-1.1-1.2-1.8
				c-0.3-0.7-0.4-1.4-0.4-2.3v0c0-0.8,0.1-1.5,0.4-2.2c0.3-0.7,0.6-1.3,1.1-1.8c0.5-0.5,1-0.9,1.7-1.2c0.7-0.3,1.4-0.4,2.2-0.4
				c0.9,0,1.7,0.2,2.3,0.5c0.7,0.3,1.2,0.8,1.6,1.3c0.4,0.5,0.8,1.2,1,1.9c0.2,0.7,0.3,1.4,0.3,2.2c0,0.1,0,0.2,0,0.4
				c0,0.1,0,0.3,0,0.4h-7.5c0.1,0.7,0.5,1.2,0.9,1.6c0.5,0.4,1,0.5,1.7,0.5c0.5,0,1-0.1,1.4-0.3c0.4-0.2,0.8-0.5,1.3-0.8l1.8,1.6
				c-0.5,0.6-1.1,1.1-1.9,1.5C114.8,24.9,114,25.1,113,25.1z M115,18.5c-0.1-0.7-0.3-1.2-0.7-1.7s-0.9-0.6-1.6-0.6
				c-0.6,0-1.2,0.2-1.6,0.6c-0.4,0.4-0.7,1-0.8,1.7H115z"/>
			<path fill="#77787B" d="M120.2,14h3.1v2.2c0.3-0.7,0.7-1.3,1.3-1.8c0.5-0.4,1.3-0.6,2.2-0.6V17h-0.2c-1,0-1.8,0.3-2.4,0.9
				s-0.9,1.6-0.9,2.9v4h-3.1V14z"/>
			<path fill="#77787B" d="M128.8,10h3.2v2.7h-3.2V10z M128.8,14h3.1v10.8h-3.1V14z"/>
			<path fill="#77787B" d="M140.1,25.1c-0.8,0-1.6-0.1-2.3-0.4s-1.3-0.7-1.9-1.2c-0.5-0.5-0.9-1.1-1.2-1.8c-0.3-0.7-0.4-1.4-0.4-2.2
				v0c0-0.8,0.1-1.5,0.4-2.2c0.3-0.7,0.7-1.3,1.2-1.8c0.5-0.5,1.1-0.9,1.9-1.2c0.7-0.3,1.5-0.4,2.3-0.4c0.8,0,1.6,0.1,2.3,0.4
				c0.7,0.3,1.3,0.7,1.9,1.2c0.5,0.5,0.9,1.1,1.2,1.8c0.3,0.7,0.4,1.4,0.4,2.2v0c0,0.8-0.1,1.5-0.4,2.2c-0.3,0.7-0.7,1.3-1.2,1.8
				c-0.5,0.5-1.1,0.9-1.9,1.2C141.7,24.9,141,25.1,140.1,25.1z M140.2,22.4c0.4,0,0.8-0.1,1.2-0.2c0.3-0.2,0.6-0.4,0.9-0.6
				c0.2-0.3,0.4-0.6,0.6-0.9s0.2-0.7,0.2-1.1v0c0-0.4-0.1-0.8-0.2-1.1c-0.1-0.4-0.3-0.7-0.6-1c-0.3-0.3-0.6-0.5-0.9-0.7
				c-0.4-0.2-0.7-0.2-1.2-0.2c-0.4,0-0.8,0.1-1.2,0.2c-0.3,0.2-0.6,0.4-0.9,0.6c-0.2,0.3-0.4,0.6-0.6,0.9c-0.1,0.4-0.2,0.7-0.2,1.1
				v0c0,0.4,0.1,0.8,0.2,1.1c0.1,0.4,0.3,0.7,0.6,1c0.3,0.3,0.6,0.5,0.9,0.7C139.3,22.3,139.7,22.4,140.2,22.4z"/>
			<path fill="#77787B" d="M158.7,25c-0.6,0-1.2-0.1-1.8-0.4c-0.6-0.2-1.1-0.6-1.6-1.1c-0.5-0.5-0.8-1.1-1.1-1.8
				c-0.3-0.7-0.4-1.5-0.4-2.4v0c0-0.9,0.1-1.7,0.4-2.4c0.3-0.7,0.6-1.3,1.1-1.8c0.5-0.5,1-0.8,1.6-1.1c0.6-0.2,1.2-0.4,1.9-0.4
				c0.8,0,1.5,0.2,2,0.5c0.5,0.3,1,0.7,1.3,1.1V10h3.1v14.8h-3.1v-1.6c-0.4,0.5-0.8,0.9-1.4,1.3C160.2,24.8,159.6,25,158.7,25z
				 M159.5,22.4c0.4,0,0.7-0.1,1-0.2c0.3-0.1,0.6-0.3,0.8-0.6c0.2-0.3,0.4-0.6,0.6-1c0.1-0.4,0.2-0.8,0.2-1.2v0
				c0-0.4-0.1-0.9-0.2-1.2c-0.1-0.4-0.3-0.7-0.6-1c-0.2-0.3-0.5-0.5-0.8-0.6c-0.3-0.1-0.7-0.2-1-0.2s-0.7,0.1-1,0.2
				c-0.3,0.1-0.6,0.3-0.8,0.6c-0.2,0.3-0.4,0.6-0.6,0.9c-0.1,0.4-0.2,0.8-0.2,1.2v0c0,0.4,0.1,0.9,0.2,1.2c0.1,0.4,0.3,0.7,0.6,1
				c0.2,0.3,0.5,0.5,0.8,0.6C158.8,22.3,159.2,22.4,159.5,22.4z"/>
			<path fill="#77787B" d="M173.1,25.1c-0.8,0-1.6-0.1-2.3-0.4c-0.7-0.3-1.3-0.7-1.8-1.2c-0.5-0.5-0.9-1.1-1.2-1.8
				c-0.3-0.7-0.4-1.4-0.4-2.3v0c0-0.8,0.1-1.5,0.4-2.2c0.3-0.7,0.6-1.3,1.1-1.8c0.5-0.5,1-0.9,1.7-1.2c0.7-0.3,1.4-0.4,2.2-0.4
				c0.9,0,1.7,0.2,2.3,0.5c0.7,0.3,1.2,0.8,1.6,1.3c0.4,0.5,0.8,1.2,1,1.9c0.2,0.7,0.3,1.4,0.3,2.2c0,0.1,0,0.2,0,0.4
				c0,0.1,0,0.3,0,0.4h-7.5c0.1,0.7,0.5,1.2,0.9,1.6c0.5,0.4,1,0.5,1.7,0.5c0.5,0,1-0.1,1.4-0.3s0.8-0.5,1.3-0.8l1.8,1.6
				c-0.5,0.6-1.1,1.1-1.9,1.5C174.9,24.9,174.1,25.1,173.1,25.1z M175.1,18.5c-0.1-0.7-0.3-1.2-0.7-1.7s-0.9-0.6-1.6-0.6
				c-0.6,0-1.2,0.2-1.6,0.6c-0.4,0.4-0.7,1-0.8,1.7H175.1z"/>
			<path fill="#77787B" d="M186.7,10.7h10.7v2.8h-7.6v2.9h6.7v2.8h-6.7v3h7.7v2.8h-10.8V10.7z"/>
			<path fill="#77787B" d="M200,14h3.1v1.5c0.2-0.2,0.4-0.5,0.6-0.7s0.4-0.4,0.7-0.6c0.3-0.2,0.5-0.3,0.8-0.4
				c0.3-0.1,0.7-0.1,1.1-0.1c1.2,0,2.1,0.4,2.7,1.1c0.6,0.7,1,1.7,1,3v7h-3.1v-6c0-0.7-0.2-1.3-0.5-1.6c-0.3-0.4-0.8-0.6-1.4-0.6
				c-0.6,0-1.1,0.2-1.4,0.6c-0.3,0.4-0.5,0.9-0.5,1.6v6H200V14z"/>
			<path fill="#77787B" d="M217.7,25.1c-0.8,0-1.6-0.1-2.3-0.4c-0.7-0.3-1.3-0.7-1.8-1.2c-0.5-0.5-0.9-1.1-1.2-1.8
				c-0.3-0.7-0.4-1.4-0.4-2.3v0c0-0.8,0.1-1.5,0.4-2.2c0.3-0.7,0.6-1.3,1.1-1.8c0.5-0.5,1-0.9,1.7-1.2c0.7-0.3,1.4-0.4,2.2-0.4
				c0.9,0,1.7,0.2,2.3,0.5c0.7,0.3,1.2,0.8,1.6,1.3c0.4,0.5,0.8,1.2,1,1.9c0.2,0.7,0.3,1.4,0.3,2.2c0,0.1,0,0.2,0,0.4
				c0,0.1,0,0.3,0,0.4h-7.5c0.2,0.7,0.5,1.2,0.9,1.6c0.5,0.4,1,0.5,1.7,0.5c0.5,0,1-0.1,1.4-0.3s0.8-0.5,1.3-0.8l1.8,1.6
				c-0.5,0.6-1.1,1.1-1.9,1.5C219.5,24.9,218.7,25.1,217.7,25.1z M219.7,18.5c-0.1-0.7-0.3-1.2-0.7-1.7s-0.9-0.6-1.6-0.6
				s-1.2,0.2-1.6,0.6c-0.4,0.4-0.7,1-0.8,1.7H219.7z"/>
			<path fill="#77787B" d="M224.9,14h3.1v2.2c0.3-0.7,0.7-1.3,1.3-1.8c0.5-0.4,1.3-0.6,2.2-0.6V17h-0.2c-1,0-1.8,0.3-2.4,0.9
				c-0.6,0.6-0.9,1.6-0.9,2.9v4h-3.1V14z"/>
			<path fill="#77787B" d="M238.3,28.1c-0.9,0-1.7-0.1-2.5-0.3c-0.8-0.2-1.6-0.5-2.2-0.8l1.1-2.3c0.6,0.3,1.1,0.6,1.7,0.7
				c0.6,0.2,1.2,0.3,2,0.3c1.1,0,1.8-0.2,2.3-0.7c0.5-0.5,0.8-1.2,0.8-2.2v-0.5c-0.5,0.6-1,1-1.5,1.3s-1.2,0.5-2,0.5
				c-0.6,0-1.2-0.1-1.8-0.3c-0.6-0.2-1.1-0.5-1.5-1c-0.4-0.4-0.8-1-1.1-1.6c-0.3-0.6-0.4-1.3-0.4-2.2v0c0-0.8,0.1-1.5,0.4-2.2
				s0.6-1.2,1.1-1.6c0.4-0.4,1-0.8,1.5-1c0.6-0.2,1.2-0.3,1.8-0.3c0.8,0,1.5,0.2,2.1,0.5c0.5,0.3,1,0.7,1.4,1.2V14h3.1v8.4
				c0,1.9-0.5,3.4-1.4,4.3c-0.5,0.5-1.2,0.9-1.9,1.1C240.2,28,239.3,28.1,238.3,28.1z M238.6,21.4c0.4,0,0.7-0.1,1.1-0.2
				c0.3-0.1,0.6-0.3,0.8-0.5c0.2-0.2,0.4-0.5,0.6-0.8c0.1-0.3,0.2-0.6,0.2-1v0c0-0.4-0.1-0.7-0.2-1c-0.1-0.3-0.3-0.6-0.6-0.8
				c-0.2-0.2-0.5-0.4-0.8-0.5c-0.3-0.1-0.7-0.2-1.1-0.2c-0.4,0-0.7,0.1-1,0.2c-0.3,0.1-0.6,0.3-0.8,0.5c-0.2,0.2-0.4,0.5-0.6,0.8
				s-0.2,0.6-0.2,1v0c0,0.8,0.3,1.4,0.8,1.8C237.2,21.1,237.9,21.4,238.6,21.4z"/>
			<path fill="#77787B" d="M247.2,14h3.1v10.8h-3.1V14z M249.7,9.2l2.6,1.2l-2.6,2.4h-2.3L249.7,9.2z"/>
			<path fill="#77787B" d="M256.2,25c-0.5,0-1-0.1-1.4-0.2c-0.5-0.1-0.8-0.4-1.2-0.6s-0.6-0.6-0.8-1c-0.2-0.4-0.3-0.9-0.3-1.4v0
				c0-0.6,0.1-1.1,0.3-1.5c0.2-0.4,0.5-0.8,0.9-1.1c0.4-0.3,0.8-0.5,1.4-0.6c0.5-0.1,1.1-0.2,1.8-0.2c0.6,0,1,0,1.4,0.1
				c0.4,0.1,0.8,0.2,1.2,0.3v-0.2c0-0.6-0.2-1.1-0.6-1.5c-0.4-0.3-1-0.5-1.7-0.5c-0.6,0-1.1,0.1-1.6,0.2c-0.5,0.1-0.9,0.2-1.4,0.4
				l-0.8-2.3c0.6-0.3,1.2-0.5,1.9-0.6c0.6-0.2,1.4-0.2,2.3-0.2c0.8,0,1.6,0.1,2.2,0.3c0.6,0.2,1.1,0.5,1.5,0.9
				c0.4,0.4,0.7,0.9,0.9,1.5c0.2,0.6,0.3,1.2,0.3,2v6.3h-3v-1.2c-0.4,0.4-0.8,0.8-1.4,1C257.6,24.9,257,25,256.2,25z M257.2,22.9
				c0.7,0,1.3-0.2,1.7-0.5c0.4-0.4,0.7-0.8,0.7-1.4v-0.5c-0.3-0.1-0.6-0.2-0.9-0.3c-0.3-0.1-0.7-0.1-1.1-0.1c-0.7,0-1.2,0.1-1.6,0.4
				c-0.4,0.3-0.6,0.6-0.6,1.1v0c0,0.4,0.2,0.7,0.5,1S256.7,22.9,257.2,22.9z"/>
			<path fill="#77787B" d="M273.8,28.1c-0.6,0-1.1-0.1-1.5-0.2s-0.8-0.3-1.2-0.5l1-2.2c0.2,0.1,0.4,0.2,0.7,0.3
				c0.2,0.1,0.5,0.1,0.7,0.1c0.3,0,0.5-0.1,0.6-0.2s0.3-0.3,0.4-0.6L270.2,14h3.3l2.5,7.4l2.4-7.4h3.2l-4.2,11.1
				c-0.2,0.6-0.4,1-0.6,1.4c-0.2,0.4-0.5,0.7-0.8,0.9c-0.3,0.2-0.6,0.4-0.9,0.5S274.2,28.1,273.8,28.1z"/>
			<path fill="#77787B" d="M289.7,10.7h3.4l3.7,6l3.7-6h3.4v14.2h-3.1v-9.2l-4,6h-0.1l-3.9-6v9.2h-3.1V10.7z"/>
			<path fill="#77787B" d="M307,10h3.2v2.7H307V10z M307.1,14h3.1v10.8h-3.1V14z"/>
			<path fill="#77787B" d="M313,14h3.1v1.5c0.2-0.2,0.4-0.5,0.6-0.7s0.4-0.4,0.7-0.6c0.3-0.2,0.5-0.3,0.9-0.4
				c0.3-0.1,0.7-0.1,1.1-0.1c1.2,0,2.1,0.4,2.7,1.1c0.6,0.7,1,1.7,1,3v7h-3.1v-6c0-0.7-0.2-1.3-0.5-1.6c-0.3-0.4-0.8-0.6-1.4-0.6
				c-0.6,0-1.1,0.2-1.4,0.6c-0.3,0.4-0.5,0.9-0.5,1.6v6H313V14z"/>
			<path fill="#77787B" d="M330.8,25.1c-0.8,0-1.6-0.1-2.3-0.4c-0.7-0.3-1.3-0.7-1.8-1.2c-0.5-0.5-0.9-1.1-1.2-1.8
				c-0.3-0.7-0.4-1.4-0.4-2.3v0c0-0.8,0.1-1.5,0.4-2.2c0.3-0.7,0.6-1.3,1.1-1.8c0.5-0.5,1-0.9,1.7-1.2c0.7-0.3,1.4-0.4,2.2-0.4
				c0.9,0,1.7,0.2,2.3,0.5c0.7,0.3,1.2,0.8,1.6,1.3c0.4,0.5,0.8,1.2,1,1.9c0.2,0.7,0.3,1.4,0.3,2.2c0,0.1,0,0.2,0,0.4
				c0,0.1,0,0.3,0,0.4h-7.5c0.1,0.7,0.5,1.2,0.9,1.6s1,0.5,1.7,0.5c0.5,0,1-0.1,1.4-0.3s0.8-0.5,1.3-0.8l1.8,1.6
				c-0.5,0.6-1.1,1.1-1.9,1.5C332.6,24.9,331.8,25.1,330.8,25.1z M332.8,18.5c-0.1-0.7-0.3-1.2-0.7-1.7c-0.4-0.4-0.9-0.6-1.6-0.6
				s-1.2,0.2-1.6,0.6c-0.4,0.4-0.7,1-0.8,1.7H332.8z"/>
			<path fill="#77787B" d="M338,14h3.1v2.2c0.3-0.7,0.7-1.3,1.3-1.8c0.5-0.4,1.3-0.6,2.2-0.6V17h-0.2c-1,0-1.8,0.3-2.4,0.9
				s-0.9,1.6-0.9,2.9v4H338V14z"/>
			<path fill="#77787B" d="M346.6,14h3.1v10.8h-3.1V14z M349.1,9.2l2.6,1.2l-2.6,2.4h-2.3L349.1,9.2z"/>
			<path fill="#77787B" d="M355.7,25c-0.5,0-1-0.1-1.4-0.2c-0.5-0.1-0.8-0.4-1.2-0.6s-0.6-0.6-0.8-1c-0.2-0.4-0.3-0.9-0.3-1.4v0
				c0-0.6,0.1-1.1,0.3-1.5c0.2-0.4,0.5-0.8,0.9-1.1c0.4-0.3,0.8-0.5,1.4-0.6c0.5-0.1,1.1-0.2,1.8-0.2c0.6,0,1,0,1.4,0.1
				c0.4,0.1,0.8,0.2,1.2,0.3v-0.2c0-0.6-0.2-1.1-0.6-1.5c-0.4-0.3-1-0.5-1.7-0.5c-0.6,0-1.1,0.1-1.6,0.2c-0.5,0.1-0.9,0.2-1.4,0.4
				l-0.8-2.3c0.6-0.3,1.2-0.5,1.9-0.6c0.6-0.2,1.4-0.2,2.3-0.2c0.8,0,1.6,0.1,2.2,0.3c0.6,0.2,1.1,0.5,1.5,0.9
				c0.4,0.4,0.7,0.9,0.9,1.5c0.2,0.6,0.3,1.2,0.3,2v6.3h-3v-1.2c-0.4,0.4-0.8,0.8-1.4,1C357.1,24.9,356.4,25,355.7,25z M356.6,22.9
				c0.7,0,1.3-0.2,1.8-0.5c0.4-0.4,0.7-0.8,0.7-1.4v-0.5c-0.3-0.1-0.6-0.2-0.9-0.3c-0.3-0.1-0.7-0.1-1.1-0.1c-0.7,0-1.2,0.1-1.6,0.4
				c-0.4,0.3-0.6,0.6-0.6,1.1v0c0,0.4,0.2,0.7,0.5,1S356.1,22.9,356.6,22.9z"/>
		</g>
		<g>
			<path fill="#1374BB" d="M47.4,34.9H53c0.8,0,1.6,0.1,2.2,0.3c0.7,0.2,1.2,0.5,1.7,1c0.5,0.4,0.8,0.9,1.1,1.5
				c0.3,0.6,0.4,1.2,0.4,1.9v0c0,0.8-0.1,1.5-0.4,2.1c-0.3,0.6-0.7,1.1-1.2,1.5c-0.5,0.4-1.1,0.7-1.8,0.9c-0.7,0.2-1.4,0.3-2.2,0.3
				h-2.8v4.6h-2.5V34.9z M52.8,42.3c0.9,0,1.7-0.2,2.2-0.7c0.5-0.5,0.8-1.1,0.8-1.8v0c0-0.8-0.3-1.5-0.8-1.9
				c-0.6-0.4-1.3-0.6-2.2-0.6h-2.9v5.1H52.8z"/>
			<path fill="#1374BB" d="M60.6,38.4h2.5v2.4c0.3-0.8,0.8-1.5,1.4-1.9c0.6-0.5,1.4-0.7,2.3-0.7v2.6h-0.1c-0.5,0-1,0.1-1.5,0.3
				c-0.4,0.2-0.8,0.4-1.2,0.8c-0.3,0.3-0.6,0.8-0.7,1.3c-0.2,0.5-0.3,1.1-0.3,1.9v4.1h-2.5V38.4z"/>
			<path fill="#1374BB" d="M73.9,49.3c-0.8,0-1.5-0.1-2.2-0.4c-0.7-0.3-1.2-0.6-1.7-1.1c-0.5-0.5-0.9-1.1-1.2-1.7
				c-0.3-0.7-0.4-1.4-0.4-2.3v0c0-0.8,0.1-1.5,0.4-2.2c0.3-0.7,0.6-1.3,1.1-1.8c0.5-0.5,1-0.9,1.6-1.2c0.6-0.3,1.3-0.4,2.1-0.4
				c0.8,0,1.6,0.2,2.2,0.5c0.6,0.3,1.2,0.7,1.6,1.3c0.4,0.5,0.7,1.1,1,1.8c0.2,0.7,0.3,1.4,0.3,2.2c0,0.1,0,0.2,0,0.3
				c0,0.1,0,0.2,0,0.4h-7.8c0.1,0.9,0.5,1.5,1,2c0.6,0.5,1.2,0.7,2,0.7c0.6,0,1.1-0.1,1.6-0.3c0.4-0.2,0.9-0.5,1.3-1l1.4,1.3
				c-0.5,0.6-1.1,1.1-1.8,1.5C75.7,49.2,74.9,49.3,73.9,49.3z M76.3,43c0-0.4-0.1-0.8-0.3-1.1c-0.1-0.3-0.3-0.6-0.5-0.9
				c-0.2-0.3-0.5-0.4-0.8-0.6s-0.7-0.2-1.1-0.2c-0.8,0-1.4,0.3-1.9,0.8c-0.5,0.5-0.8,1.2-0.9,2H76.3z"/>
			<path fill="#1374BB" d="M84.9,49.3c-0.8,0-1.5-0.1-2.3-0.4c-0.8-0.3-1.5-0.7-2.2-1.2l1.1-1.7c0.6,0.4,1.2,0.8,1.8,1
				c0.6,0.2,1.2,0.3,1.7,0.3c0.5,0,0.9-0.1,1.2-0.3c0.3-0.2,0.4-0.5,0.4-0.8v0c0-0.2-0.1-0.4-0.2-0.5c-0.1-0.1-0.3-0.3-0.5-0.4
				c-0.2-0.1-0.5-0.2-0.8-0.3c-0.3-0.1-0.6-0.2-0.9-0.3c-0.4-0.1-0.8-0.2-1.2-0.4c-0.4-0.1-0.8-0.3-1.1-0.6
				c-0.3-0.2-0.6-0.5-0.8-0.9c-0.2-0.3-0.3-0.8-0.3-1.3v0c0-0.5,0.1-0.9,0.3-1.4c0.2-0.4,0.5-0.7,0.8-1c0.3-0.3,0.7-0.5,1.2-0.6
				c0.5-0.1,1-0.2,1.5-0.2c0.7,0,1.4,0.1,2,0.3c0.7,0.2,1.3,0.5,1.9,0.9l-1,1.7c-0.5-0.3-1-0.6-1.6-0.7c-0.5-0.2-1-0.3-1.5-0.3
				c-0.5,0-0.8,0.1-1.1,0.3c-0.3,0.2-0.4,0.5-0.4,0.8v0c0,0.2,0.1,0.4,0.2,0.5c0.1,0.1,0.3,0.3,0.5,0.4c0.2,0.1,0.5,0.2,0.8,0.3
				c0.3,0.1,0.6,0.2,0.9,0.3c0.4,0.1,0.8,0.3,1.2,0.4c0.4,0.2,0.7,0.4,1.1,0.6c0.3,0.2,0.6,0.5,0.8,0.9s0.3,0.7,0.3,1.2v0
				c0,0.6-0.1,1.1-0.3,1.5s-0.5,0.8-0.8,1c-0.4,0.3-0.8,0.5-1.3,0.6S85.4,49.3,84.9,49.3z"/>
			<path fill="#1374BB" d="M91.3,34.5H94v2.3h-2.6V34.5z M91.4,38.4h2.5v10.7h-2.5V38.4z"/>
			<path fill="#1374BB" d="M101.5,49.3c-0.6,0-1.2-0.1-1.8-0.4c-0.6-0.2-1.1-0.6-1.6-1.1c-0.5-0.5-0.8-1.1-1.1-1.7
				c-0.3-0.7-0.4-1.5-0.4-2.4v0c0-0.9,0.1-1.7,0.4-2.4c0.3-0.7,0.6-1.3,1.1-1.7c0.5-0.5,1-0.8,1.6-1.1c0.6-0.2,1.2-0.4,1.8-0.4
				c0.9,0,1.6,0.2,2.2,0.6c0.6,0.4,1.1,0.8,1.5,1.3v-5.7h2.5v14.8h-2.5l0-1.8c-0.4,0.6-0.9,1-1.5,1.4
				C103.1,49.1,102.4,49.3,101.5,49.3z M102.1,47.2c0.4,0,0.8-0.1,1.2-0.2c0.4-0.2,0.7-0.4,1-0.7c0.3-0.3,0.5-0.7,0.7-1.1
				s0.3-0.9,0.3-1.4v0c0-0.5-0.1-1-0.3-1.4c-0.2-0.4-0.4-0.8-0.7-1.1c-0.3-0.3-0.6-0.5-1-0.7c-0.4-0.2-0.8-0.2-1.2-0.2
				c-0.4,0-0.8,0.1-1.2,0.2c-0.4,0.2-0.7,0.4-1,0.7c-0.3,0.3-0.5,0.7-0.7,1.1c-0.2,0.4-0.2,0.9-0.2,1.4v0c0,0.5,0.1,1,0.2,1.4
				c0.2,0.4,0.4,0.8,0.7,1.1c0.3,0.3,0.6,0.5,1,0.7S101.7,47.2,102.1,47.2z"/>
			<path fill="#1374BB" d="M115.5,49.3c-0.8,0-1.5-0.1-2.2-0.4c-0.7-0.3-1.2-0.6-1.7-1.1c-0.5-0.5-0.9-1.1-1.2-1.7
				c-0.3-0.7-0.4-1.4-0.4-2.3v0c0-0.8,0.1-1.5,0.4-2.2c0.3-0.7,0.6-1.3,1.1-1.8c0.5-0.5,1-0.9,1.6-1.2c0.6-0.3,1.3-0.4,2.1-0.4
				c0.8,0,1.6,0.2,2.2,0.5c0.6,0.3,1.2,0.7,1.6,1.3c0.4,0.5,0.7,1.1,1,1.8c0.2,0.7,0.3,1.4,0.3,2.2c0,0.1,0,0.2,0,0.3
				c0,0.1,0,0.2,0,0.4h-7.8c0.1,0.9,0.5,1.5,1,2c0.6,0.5,1.2,0.7,2,0.7c0.6,0,1.1-0.1,1.6-0.3c0.4-0.2,0.9-0.5,1.3-1l1.4,1.3
				c-0.5,0.6-1.1,1.1-1.8,1.5C117.4,49.2,116.5,49.3,115.5,49.3z M118,43c0-0.4-0.1-0.8-0.3-1.1c-0.1-0.3-0.3-0.6-0.5-0.9
				c-0.2-0.3-0.5-0.4-0.8-0.6c-0.3-0.1-0.7-0.2-1.1-0.2c-0.8,0-1.4,0.3-1.9,0.8c-0.5,0.5-0.8,1.2-0.9,2H118z"/>
			<path fill="#1374BB" d="M122.9,38.4h2.5v1.7c0.2-0.3,0.4-0.5,0.6-0.7c0.2-0.2,0.5-0.4,0.7-0.6c0.3-0.2,0.6-0.3,0.9-0.4
				c0.3-0.1,0.7-0.2,1.1-0.2c1.2,0,2.1,0.4,2.8,1.1s1,1.7,1,3v6.8H130V43c0-0.8-0.2-1.5-0.6-1.9c-0.4-0.5-1-0.7-1.7-0.7
				c-0.7,0-1.3,0.2-1.7,0.7s-0.7,1.1-0.7,1.9v6h-2.5V38.4z"/>
			<path fill="#1374BB" d="M140.3,49.3c-0.8,0-1.5-0.1-2.2-0.4c-0.7-0.3-1.3-0.7-1.8-1.2c-0.5-0.5-0.9-1.1-1.2-1.8
				c-0.3-0.7-0.4-1.4-0.4-2.1v0c0-0.8,0.1-1.5,0.4-2.2c0.3-0.7,0.7-1.3,1.2-1.8c0.5-0.5,1.1-0.9,1.8-1.2c0.7-0.3,1.4-0.4,2.2-0.4
				c1,0,1.9,0.2,2.5,0.5c0.7,0.3,1.3,0.8,1.7,1.3l-1.5,1.6c-0.4-0.4-0.8-0.7-1.2-1c-0.4-0.3-0.9-0.4-1.6-0.4c-0.4,0-0.9,0.1-1.2,0.3
				c-0.4,0.2-0.7,0.4-1,0.7c-0.3,0.3-0.5,0.7-0.6,1.1c-0.2,0.4-0.2,0.9-0.2,1.3v0c0,0.5,0.1,0.9,0.2,1.3c0.2,0.4,0.4,0.8,0.7,1.1
				c0.3,0.3,0.6,0.6,1,0.7c0.4,0.2,0.8,0.3,1.3,0.3c0.6,0,1.1-0.1,1.5-0.4c0.4-0.2,0.9-0.6,1.2-1l1.5,1.5c-0.5,0.6-1.1,1.1-1.8,1.4
				C142.2,49.2,141.4,49.3,140.3,49.3z"/>
			<path fill="#1374BB" d="M147,34.5h2.6v2.3H147V34.5z M147.1,38.4h2.5v10.7h-2.5V38.4z"/>
			<path fill="#1374BB" d="M159.2,49.1v-1.3c-0.4,0.4-0.8,0.8-1.4,1.1c-0.6,0.3-1.3,0.4-2.1,0.4c-0.5,0-1-0.1-1.5-0.2
				c-0.5-0.1-0.9-0.4-1.2-0.6c-0.3-0.3-0.6-0.6-0.8-1c-0.2-0.4-0.3-0.9-0.3-1.4v0c0-0.6,0.1-1.1,0.3-1.5c0.2-0.4,0.5-0.8,0.9-1.1
				c0.4-0.3,0.8-0.5,1.4-0.6c0.5-0.1,1.1-0.2,1.7-0.2c0.6,0,1.2,0,1.6,0.1c0.5,0.1,0.9,0.2,1.3,0.3v-0.2c0-0.7-0.2-1.3-0.7-1.7
				s-1.1-0.6-2-0.6c-0.6,0-1.1,0.1-1.6,0.2c-0.5,0.1-1,0.3-1.4,0.5l-0.7-2c0.6-0.3,1.2-0.5,1.8-0.6c0.6-0.2,1.4-0.2,2.2-0.2
				c1.6,0,2.8,0.4,3.5,1.2c0.8,0.8,1.2,1.9,1.2,3.3v6.3H159.2z M159.3,44.6c-0.3-0.1-0.7-0.2-1.1-0.3c-0.4-0.1-0.9-0.1-1.3-0.1
				c-0.8,0-1.4,0.1-1.8,0.4c-0.4,0.3-0.6,0.7-0.6,1.2v0c0,0.5,0.2,0.9,0.6,1.2c0.4,0.3,0.9,0.4,1.5,0.4c0.4,0,0.8-0.1,1.1-0.2
				s0.6-0.3,0.9-0.5c0.3-0.2,0.5-0.4,0.6-0.7c0.1-0.3,0.2-0.6,0.2-0.9V44.6z"/>
			<path fill="#1374BB" d="M175.1,49.3c-0.6,0-1.2-0.1-1.8-0.4c-0.6-0.2-1.1-0.6-1.6-1.1c-0.5-0.5-0.8-1.1-1.1-1.7s-0.4-1.5-0.4-2.4
				v0c0-0.9,0.1-1.7,0.4-2.4c0.3-0.7,0.6-1.3,1.1-1.7c0.5-0.5,1-0.8,1.6-1.1c0.6-0.2,1.2-0.4,1.8-0.4c0.9,0,1.6,0.2,2.2,0.6
				c0.6,0.4,1.1,0.8,1.5,1.3v-5.7h2.5v14.8h-2.5l0-1.8c-0.4,0.6-0.9,1-1.5,1.4C176.6,49.1,175.9,49.3,175.1,49.3z M175.6,47.2
				c0.4,0,0.8-0.1,1.2-0.2c0.4-0.2,0.7-0.4,1-0.7c0.3-0.3,0.5-0.7,0.7-1.1s0.3-0.9,0.3-1.4v0c0-0.5-0.1-1-0.3-1.4
				c-0.2-0.4-0.4-0.8-0.7-1.1c-0.3-0.3-0.6-0.5-1-0.7c-0.4-0.2-0.8-0.2-1.2-0.2c-0.4,0-0.8,0.1-1.2,0.2c-0.4,0.2-0.7,0.4-1,0.7
				c-0.3,0.3-0.5,0.7-0.7,1.1c-0.2,0.4-0.2,0.9-0.2,1.4v0c0,0.5,0.1,1,0.2,1.4c0.2,0.4,0.4,0.8,0.7,1.1s0.6,0.5,1,0.7
				C174.8,47.1,175.2,47.2,175.6,47.2z"/>
			<path fill="#1374BB" d="M189.1,49.3c-0.8,0-1.5-0.1-2.2-0.4c-0.7-0.3-1.2-0.6-1.7-1.1c-0.5-0.5-0.9-1.1-1.2-1.7
				c-0.3-0.7-0.4-1.4-0.4-2.3v0c0-0.8,0.1-1.5,0.4-2.2c0.3-0.7,0.6-1.3,1.1-1.8c0.5-0.5,1-0.9,1.6-1.2c0.6-0.3,1.3-0.4,2.1-0.4
				c0.8,0,1.6,0.2,2.2,0.5c0.6,0.3,1.2,0.7,1.6,1.3c0.4,0.5,0.7,1.1,1,1.8c0.2,0.7,0.3,1.4,0.3,2.2c0,0.1,0,0.2,0,0.3
				c0,0.1,0,0.2,0,0.4h-7.8c0.1,0.9,0.5,1.5,1,2c0.6,0.5,1.2,0.7,2,0.7c0.6,0,1.1-0.1,1.6-0.3s0.9-0.5,1.3-1l1.4,1.3
				c-0.5,0.6-1.1,1.1-1.8,1.5C190.9,49.2,190.1,49.3,189.1,49.3z M191.5,43c0-0.4-0.1-0.8-0.3-1.1c-0.1-0.3-0.3-0.6-0.5-0.9
				c-0.2-0.3-0.5-0.4-0.8-0.6c-0.3-0.1-0.7-0.2-1.1-0.2c-0.8,0-1.4,0.3-1.9,0.8c-0.5,0.5-0.8,1.2-0.9,2H191.5z"/>
			<path fill="#1374BB" d="M202.6,34.3h2.5v14.8h-2.5V34.3z"/>
			<path fill="#1374BB" d="M214.8,49.1v-1.3c-0.4,0.4-0.8,0.8-1.4,1.1c-0.6,0.3-1.3,0.4-2.1,0.4c-0.5,0-1-0.1-1.5-0.2
				c-0.5-0.1-0.9-0.4-1.2-0.6s-0.6-0.6-0.8-1c-0.2-0.4-0.3-0.9-0.3-1.4v0c0-0.6,0.1-1.1,0.3-1.5c0.2-0.4,0.5-0.8,0.9-1.1
				c0.4-0.3,0.8-0.5,1.4-0.6c0.5-0.1,1.1-0.2,1.7-0.2c0.6,0,1.2,0,1.6,0.1c0.5,0.1,0.9,0.2,1.3,0.3v-0.2c0-0.7-0.2-1.3-0.7-1.7
				c-0.5-0.4-1.1-0.6-2-0.6c-0.6,0-1.1,0.1-1.6,0.2c-0.5,0.1-1,0.3-1.4,0.5l-0.7-2c0.6-0.3,1.2-0.5,1.8-0.6c0.6-0.2,1.4-0.2,2.2-0.2
				c1.6,0,2.8,0.4,3.5,1.2c0.8,0.8,1.2,1.9,1.2,3.3v6.3H214.8z M214.9,44.6c-0.3-0.1-0.7-0.2-1.1-0.3c-0.4-0.1-0.9-0.1-1.3-0.1
				c-0.8,0-1.4,0.1-1.8,0.4s-0.6,0.7-0.6,1.2v0c0,0.5,0.2,0.9,0.6,1.2c0.4,0.3,0.9,0.4,1.5,0.4c0.4,0,0.8-0.1,1.1-0.2
				c0.3-0.1,0.6-0.3,0.9-0.5c0.3-0.2,0.5-0.4,0.6-0.7c0.1-0.3,0.2-0.6,0.2-0.9V44.6z"/>
			<path fill="#1374BB" d="M226.5,34.9h2.3l7.6,9.8v-9.8h2.5v14.2h-2.1L228.9,39v10.1h-2.5V34.9z"/>
			<path fill="#1374BB" d="M248.7,49.1v-1.3c-0.4,0.4-0.8,0.8-1.4,1.1c-0.6,0.3-1.3,0.4-2.1,0.4c-0.5,0-1-0.1-1.5-0.2
				c-0.5-0.1-0.9-0.4-1.2-0.6c-0.3-0.3-0.6-0.6-0.8-1c-0.2-0.4-0.3-0.9-0.3-1.4v0c0-0.6,0.1-1.1,0.3-1.5c0.2-0.4,0.5-0.8,0.9-1.1
				c0.4-0.3,0.8-0.5,1.4-0.6c0.5-0.1,1.1-0.2,1.7-0.2c0.6,0,1.2,0,1.6,0.1c0.5,0.1,0.9,0.2,1.3,0.3v-0.2c0-0.7-0.2-1.3-0.7-1.7
				c-0.5-0.4-1.1-0.6-2-0.6c-0.6,0-1.1,0.1-1.6,0.2c-0.5,0.1-1,0.3-1.4,0.5l-0.7-2c0.6-0.3,1.2-0.5,1.8-0.6c0.6-0.2,1.4-0.2,2.2-0.2
				c1.6,0,2.8,0.4,3.5,1.2c0.8,0.8,1.2,1.9,1.2,3.3v6.3H248.7z M248.8,44.6c-0.3-0.1-0.7-0.2-1.1-0.3c-0.4-0.1-0.9-0.1-1.3-0.1
				c-0.8,0-1.4,0.1-1.8,0.4s-0.6,0.7-0.6,1.2v0c0,0.5,0.2,0.9,0.6,1.2c0.4,0.3,0.9,0.4,1.5,0.4c0.4,0,0.8-0.1,1.1-0.2
				c0.3-0.1,0.6-0.3,0.9-0.5c0.3-0.2,0.5-0.4,0.6-0.7c0.1-0.3,0.2-0.6,0.2-0.9V44.6z"/>
			<path fill="#1374BB" d="M259,49.3c-0.8,0-1.5-0.1-2.2-0.4c-0.7-0.3-1.3-0.7-1.8-1.2c-0.5-0.5-0.9-1.1-1.2-1.8
				c-0.3-0.7-0.4-1.4-0.4-2.1v0c0-0.8,0.1-1.5,0.4-2.2c0.3-0.7,0.7-1.3,1.2-1.8c0.5-0.5,1.1-0.9,1.8-1.2c0.7-0.3,1.4-0.4,2.2-0.4
				c1,0,1.9,0.2,2.5,0.5c0.7,0.3,1.3,0.8,1.7,1.3l-1.5,1.6c-0.4-0.4-0.8-0.7-1.2-1c-0.4-0.3-0.9-0.4-1.6-0.4c-0.4,0-0.9,0.1-1.2,0.3
				c-0.4,0.2-0.7,0.4-1,0.7c-0.3,0.3-0.5,0.7-0.6,1.1c-0.2,0.4-0.2,0.9-0.2,1.3v0c0,0.5,0.1,0.9,0.2,1.3c0.2,0.4,0.4,0.8,0.7,1.1
				s0.6,0.6,1,0.7c0.4,0.2,0.8,0.3,1.3,0.3c0.6,0,1.1-0.1,1.5-0.4c0.4-0.2,0.9-0.6,1.2-1l1.5,1.5c-0.5,0.6-1.1,1.1-1.8,1.4
				C260.9,49.2,260,49.3,259,49.3z"/>
			<path fill="#1374BB" d="M265.6,34.5h2.7v2.3h-2.7V34.5z M265.7,38.4h2.5v10.7h-2.5V38.4z"/>
			<path fill="#1374BB" d="M276.4,49.3c-0.8,0-1.6-0.1-2.3-0.4c-0.7-0.3-1.3-0.7-1.8-1.2c-0.5-0.5-0.9-1.1-1.2-1.8
				c-0.3-0.7-0.4-1.4-0.4-2.1v0c0-0.8,0.1-1.5,0.4-2.2c0.3-0.7,0.7-1.3,1.2-1.8c0.5-0.5,1.1-0.9,1.8-1.2c0.7-0.3,1.5-0.4,2.3-0.4
				c0.8,0,1.6,0.1,2.3,0.4c0.7,0.3,1.3,0.7,1.8,1.2s0.9,1.1,1.2,1.8c0.3,0.7,0.4,1.4,0.4,2.2v0c0,0.8-0.1,1.5-0.4,2.1
				c-0.3,0.7-0.7,1.3-1.2,1.8c-0.5,0.5-1.1,0.9-1.8,1.2S277.3,49.3,276.4,49.3z M276.5,47.2c0.5,0,0.9-0.1,1.3-0.3
				c0.4-0.2,0.7-0.4,1-0.7s0.5-0.7,0.6-1.1c0.1-0.4,0.2-0.8,0.2-1.3v0c0-0.5-0.1-0.9-0.2-1.3c-0.2-0.4-0.4-0.8-0.7-1.1
				c-0.3-0.3-0.6-0.6-1-0.7c-0.4-0.2-0.8-0.3-1.3-0.3c-0.5,0-0.9,0.1-1.3,0.3c-0.4,0.2-0.7,0.4-1,0.7c-0.3,0.3-0.5,0.7-0.6,1.1
				c-0.1,0.4-0.2,0.9-0.2,1.3v0c0,0.5,0.1,0.9,0.2,1.3c0.2,0.4,0.4,0.8,0.7,1.1c0.3,0.3,0.6,0.6,1,0.7
				C275.6,47.1,276,47.2,276.5,47.2z M277.7,33.7l2.2,1l-2.5,2.3h-1.9L277.7,33.7z"/>
			<path fill="#1374BB" d="M284.7,38.4h2.5v1.7c0.2-0.3,0.4-0.5,0.6-0.7c0.2-0.2,0.4-0.4,0.7-0.6c0.3-0.2,0.6-0.3,0.9-0.4
				c0.3-0.1,0.7-0.2,1.1-0.2c1.2,0,2.1,0.4,2.8,1.1c0.7,0.7,1,1.7,1,3v6.8h-2.5V43c0-0.8-0.2-1.5-0.6-1.9c-0.4-0.5-1-0.7-1.7-0.7
				c-0.7,0-1.3,0.2-1.7,0.7s-0.7,1.1-0.7,1.9v6h-2.5V38.4z"/>
		</g>
	</g>
</g>
</svg>
